<?xml version="1.0" standalone="no"?>
<!DOCTYPE svg PUBLIC "-//W3C//DTD SVG 20010904//EN"
 "http://www.w3.org/TR/2001/REC-SVG-20010904/DTD/svg10.dtd">
<svg version="1.0" xmlns="http://www.w3.org/2000/svg"
 width="1200.000000pt" height="684.000000pt" viewBox="0 0 1200.000000 684.000000"
 preserveAspectRatio="xMidYMid meet">

<g transform="translate(0.000000,684.000000) scale(0.100000,-0.100000)"
fill="#000000" stroke="none">
<path d="M3989 6331 c-30 -24 -33 -89 -5 -120 29 -32 98 -29 125 5 63 80 -41
179 -120 115z m89 -24 c2 -10 -4 -27 -14 -38 -16 -17 -16 -19 -1 -19 10 0 17
-4 17 -10 0 -5 -16 -10 -35 -10 -42 0 -44 8 -10 40 33 31 32 42 -2 34 -26 -7
-27 -6 -14 10 18 21 55 17 59 -7z"/>
<path d="M6731 6173 c1 -10 4 -29 8 -43 l7 -24 16 22 c15 22 16 22 21 2 9 -36
21 -27 55 43 2 4 -1 7 -6 7 -6 0 -14 -10 -18 -22 -6 -20 -7 -21 -17 -2 -15 29
-16 29 -32 8 -14 -18 -14 -18 -15 4 0 12 -4 22 -10 22 -5 0 -10 -8 -9 -17z"/>
<path d="M6845 6140 c-8 -36 0 -50 28 -50 22 1 22 1 3 15 -20 15 -20 15 0 15
19 1 19 1 0 15 -19 15 -19 15 5 15 19 0 21 2 9 10 -26 17 -38 11 -45 -20z"/>
<path d="M6919 6144 c-11 -14 -11 -17 4 -25 22 -13 22 -30 0 -22 -11 4 -14 3
-9 -5 4 -7 16 -12 27 -12 24 0 25 28 2 47 -17 14 -17 14 0 9 12 -4 17 -2 15 6
-7 19 -24 20 -39 2z"/>
<path d="M6980 6141 c0 -6 4 -11 10 -11 5 0 7 -13 4 -30 -4 -19 -2 -30 5 -30
6 0 11 11 11 25 0 16 6 25 15 25 8 0 15 5 15 10 0 6 -6 10 -14 10 -8 0 -21 3
-30 6 -9 3 -16 1 -16 -5z"/>
<path d="M7087 6123 c-12 -21 -18 -73 -8 -73 6 0 11 10 11 22 0 16 3 19 11 11
6 -6 17 -9 24 -6 10 3 12 -2 8 -19 -4 -16 -2 -20 5 -13 9 9 16 45 13 69 -1 5
-10 1 -21 -9 -17 -16 -20 -16 -20 -2 0 18 -16 32 -23 20z"/>
<path d="M7194 6098 c-4 -7 -14 -24 -23 -37 -14 -23 -14 -23 7 -16 14 4 29 1
39 -7 15 -12 16 -9 9 22 -8 41 -21 57 -32 38z"/>
<path d="M7258 6087 c-5 -10 -8 -31 -8 -45 1 -24 2 -25 11 -9 6 10 9 30 7 45
-2 23 -4 24 -10 9z"/>
<path d="M7285 6054 c-7 -40 2 -61 12 -25 l6 24 18 -24 c10 -13 20 -22 22 -19
10 12 16 70 7 70 -6 0 -10 -7 -10 -15 0 -22 -18 -18 -25 5 -10 31 -22 24 -30
-16z"/>
<path d="M7404 6055 c-4 -9 1 -22 12 -31 16 -13 17 -15 2 -10 -10 3 -20 1 -23
-4 -7 -11 31 -24 45 -15 15 9 12 26 -7 42 -17 14 -17 14 0 9 12 -4 17 -2 15 6
-7 20 -37 22 -44 3z"/>
<path d="M7470 6051 c0 -6 4 -11 8 -11 5 0 6 -14 4 -31 -3 -22 -1 -30 7 -25 6
4 11 14 11 23 0 9 8 22 18 29 15 12 16 13 0 14 -9 0 -23 3 -32 6 -9 3 -16 1
-16 -5z"/>
<path d="M7536 6033 c-3 -8 -6 -27 -6 -41 0 -21 2 -24 10 -12 8 13 11 12 24
-5 15 -20 15 -20 16 2 0 12 5 25 10 28 8 5 8 11 0 20 -17 20 -48 25 -54 8z
m39 -13 c3 -5 -1 -10 -9 -10 -9 0 -16 5 -16 10 0 6 4 10 9 10 6 0 13 -4 16
-10z"/>
<path d="M7610 6011 c0 -11 -3 -26 -6 -35 -4 -11 2 -17 21 -22 34 -8 45 3 14
15 l-24 10 25 1 c24 1 24 1 6 15 -19 15 -19 15 5 15 19 0 21 2 9 10 -25 16
-50 12 -50 -9z"/>
<path d="M7677 5988 c-6 -42 -2 -48 31 -48 l27 1 -25 14 -25 14 24 1 c24 0 24
0 5 15 -18 14 -18 14 6 15 23 1 23 2 5 10 -34 15 -43 11 -48 -22z"/>
<path d="M7750 6001 c0 -6 4 -11 8 -11 5 0 6 -14 4 -31 -3 -22 -1 -30 7 -25 6
4 11 16 11 26 0 10 8 24 18 29 15 9 15 10 0 11 -9 0 -23 3 -32 6 -9 3 -16 1
-16 -5z"/>
<path d="M5104 5970 c-55 -21 -70 -94 -29 -135 51 -52 145 -16 145 54 0 56
-65 101 -116 81z m61 -45 c1 -11 4 -26 9 -33 10 -16 -11 -42 -34 -42 -35 0
-43 28 -24 88 6 21 49 10 49 -13z m-61 -73 c3 -5 -1 -9 -9 -9 -8 0 -12 4 -9 9
3 4 7 8 9 8 2 0 6 -4 9 -8z m91 -2 c-3 -5 -12 -10 -18 -10 -7 0 -6 4 3 10 19
12 23 12 15 0z"/>
<path d="M5130 5920 c0 -5 5 -10 10 -10 6 0 10 5 10 10 0 6 -4 10 -10 10 -5 0
-10 -4 -10 -10z"/>
<path d="M5130 5880 c0 -5 5 -10 10 -10 6 0 10 5 10 10 0 6 -4 10 -10 10 -5 0
-10 -4 -10 -10z"/>
<path d="M7329 5868 c0 -2 -17 -111 -37 -243 l-37 -239 -50 -1 -50 0 -57 -410
c-84 -605 -81 -583 -88 -555 -6 24 -6 24 -18 5 -11 -19 -11 -19 -12 5 0 20 -2
22 -10 10 -17 -27 -12 -50 13 -50 12 0 29 -5 37 -10 11 -7 5 -10 -25 -10 -36
-1 -38 -2 -22 -14 18 -14 17 -14 -2 -21 -28 -9 -26 -23 4 -31 34 -8 32 -21 -5
-29 -37 -8 -38 -22 -5 -37 20 -9 25 -18 23 -37 -2 -22 -8 -26 -30 -24 -33 2
-38 -14 -5 -19 16 -2 23 -11 25 -30 3 -26 1 -27 -26 -22 -25 5 -31 2 -37 -15
-8 -26 1 -41 24 -41 10 0 20 -2 23 -5 8 -9 -3 -55 -13 -50 -4 3 -6 12 -2 20 3
8 0 15 -6 15 -6 0 -11 -8 -12 -17 -1 -12 -4 -9 -9 7 -6 22 -8 23 -15 8 -10
-25 1 -48 24 -48 28 0 35 -17 12 -30 -16 -8 -22 -6 -30 7 -5 10 -13 15 -17 10
-4 -4 1 -16 10 -26 17 -18 17 -19 -1 -24 -13 -3 -10 -6 13 -12 26 -6 30 -11
26 -32 -3 -13 -11 -27 -19 -30 -18 -7 -33 14 -26 36 5 12 3 13 -6 5 -17 -15
-11 -44 11 -58 14 -8 24 -7 40 3 21 13 22 13 9 -2 -7 -10 -27 -21 -44 -25 -40
-10 -44 -25 -12 -42 30 -16 31 -34 11 -169 -11 -70 -12 -101 -3 -125 10 -29
12 -22 29 84 9 63 20 131 22 151 3 20 28 184 56 365 28 181 80 531 114 777 34
246 67 452 73 458 6 6 30 7 66 1 l55 -9 7 59 c5 37 12 61 22 65 14 6 231 -20
335 -39 l58 -11 -6 -41 c-3 -22 -7 -53 -9 -68 -3 -16 -3 -28 -1 -28 3 0 103
-16 223 -36 120 -19 245 -37 278 -39 100 -7 165 -16 165 -24 0 -6 99 -33 100
-27 1 1 5 44 10 96 5 52 16 160 24 240 23 219 36 192 -101 218 -65 13 -334 65
-599 117 -480 95 -493 97 -495 93z m-282 -1480 c-3 -8 -6 -5 -6 6 -1 11 2 17
5 13 3 -3 4 -12 1 -19z m-97 -308 c0 -5 -4 -10 -10 -10 -5 0 -10 5 -10 10 0 6
5 10 10 10 6 0 10 -4 10 -10z m37 -92 c-3 -7 -5 -2 -5 12 0 14 2 19 5 13 2 -7
2 -19 0 -25z m-17 -53 c-7 -8 -20 -15 -29 -15 -11 0 -8 5 9 14 33 19 35 19 20
1z m-3 -77 c-3 -8 -6 -5 -6 6 -1 11 2 17 5 13 3 -3 4 -12 1 -19z m-30 -90 c-3
-8 -6 -5 -6 6 -1 11 2 17 5 13 3 -3 4 -12 1 -19z"/>
<path d="M7173 5767 c-17 -36 -19 -45 -7 -53 11 -7 10 -33 -4 -156 -10 -82
-15 -148 -12 -148 3 0 12 53 19 118 17 163 21 182 38 182 11 0 13 7 7 33 -15
69 -18 71 -41 24z"/>
<path d="M4960 5601 c0 -6 4 -13 10 -16 6 -3 7 1 4 9 -7 18 -14 21 -14 7z"/>
<path d="M6215 5585 c-48 -47 -25 -125 42 -141 54 -14 111 46 97 103 -7 27 -7
27 -26 -16 -10 -23 -16 -47 -13 -51 3 -5 0 -12 -6 -16 -8 -4 -9 -3 -5 4 5 9
-8 12 -43 12 -56 0 -66 14 -31 45 26 24 26 38 -1 30 -15 -5 -20 -3 -17 6 7 20
43 23 58 4 11 -13 9 -19 -10 -40 l-23 -25 24 0 c16 0 29 10 41 30 16 28 16 30
0 30 -9 0 -22 8 -29 19 -11 17 -9 18 25 10 34 -7 35 -6 18 7 -30 22 -74 17
-101 -11z"/>
<path d="M5377 5478 c-27 -37 -45 -69 -30 -53 18 19 64 85 59 85 -3 0 -16 -15
-29 -32z"/>
<path d="M3714 5185 c-18 -15 -18 -15 8 -9 19 4 29 1 36 -11 8 -16 10 -16 15
-1 7 19 38 21 55 4 32 -32 0 -105 -40 -92 -11 3 -18 2 -15 -3 3 -5 -10 -7 -29
-5 -44 5 -51 18 -25 46 26 27 30 56 5 35 -12 -10 -17 -10 -23 0 -14 21 -21
-27 -9 -60 12 -35 35 -49 81 -49 69 0 105 90 54 138 -28 26 -84 29 -113 7z"/>
<path d="M7443 5185 c-22 -15 -42 -80 -29 -92 8 -9 56 37 56 54 0 17 -17 17
-23 1 -2 -7 -8 -10 -12 -6 -15 14 5 39 27 36 29 -4 37 -46 13 -64 -15 -11 -12
-13 24 -11 40 1 60 17 22 17 -14 0 -20 9 -23 33 -3 31 -2 33 27 29 23 -3 27
-1 15 7 -22 16 -72 13 -97 -4z m-8 -54 c3 -5 2 -12 -3 -15 -5 -3 -9 1 -9 9 0
17 3 19 12 6z"/>
<path d="M7543 5162 c-13 -2 -23 -8 -23 -13 0 -6 4 -8 9 -4 10 5 41 -20 41
-34 0 -4 -9 -16 -19 -25 -16 -14 -23 -15 -41 -6 -18 9 -21 9 -15 0 6 -9 -3
-11 -34 -8 -39 3 -40 3 -23 -14 10 -11 34 -19 57 -20 30 -1 43 4 62 26 22 26
30 71 15 91 -4 6 -17 9 -29 7z"/>
<path d="M3790 5145 c0 -9 5 -15 11 -13 6 2 11 8 11 13 0 5 -5 11 -11 13 -6 2
-11 -4 -11 -13z"/>
<path d="M5086 5122 l-19 -27 24 22 c12 12 21 24 18 27 -2 2 -13 -8 -23 -22z"/>
<path d="M3752 5120 c-9 -14 -8 -19 3 -24 8 -3 15 -1 15 3 0 5 10 7 23 5 12
-2 15 -1 7 2 -8 3 -20 12 -26 19 -8 11 -12 10 -22 -5z"/>
<path d="M7630 5131 c0 -6 4 -12 8 -15 5 -3 9 1 9 9 0 8 -4 15 -9 15 -4 0 -8
-4 -8 -9z"/>
<path d="M8410 4990 c0 -5 5 -10 11 -10 5 0 7 5 4 10 -3 6 -8 10 -11 10 -2 0
-4 -4 -4 -10z"/>
<path d="M5394 4959 c-47 -24 -57 -96 -19 -134 55 -56 145 -12 145 70 0 30
-14 39 -30 20 -9 -10 -9 -15 -1 -15 9 0 17 -48 9 -51 -20 -6 -128 -7 -132 -1
-3 5 6 20 19 32 30 28 32 44 5 35 -24 -7 -26 7 -5 25 12 10 18 10 30 0 20 -16
19 -39 -2 -62 -14 -16 -15 -18 0 -18 9 0 18 4 21 9 3 5 16 7 29 4 22 -5 22 -5
2 10 -11 8 -17 19 -13 22 4 4 1 14 -7 22 -24 23 -17 32 17 22 20 -5 28 -5 22
1 -15 15 -67 20 -90 9z"/>
<path d="M5660 4924 c0 -7 12 -13 28 -12 15 0 43 -3 62 -6 31 -6 33 -5 20 8
-20 19 -110 28 -110 10z"/>
<path d="M5795 4910 c3 -5 8 -10 11 -10 2 0 4 5 4 10 0 6 -5 10 -11 10 -5 0
-7 -4 -4 -10z"/>
<path d="M5837 4906 c-5 -11 4 -14 39 -12 25 1 47 -1 49 -4 7 -11 65 -9 65 2
0 6 -11 8 -25 6 -14 -3 -28 -1 -31 4 -3 5 -20 8 -38 6 -17 -1 -37 1 -43 5 -6
4 -13 1 -16 -7z"/>
<path d="M3885 4883 c-37 -9 -55 -34 -55 -78 0 -30 6 -47 23 -63 52 -49 137
-10 137 63 0 33 -27 75 -49 75 -5 0 -15 2 -23 4 -7 2 -22 1 -33 -1z m5 -50 l0
-38 26 38 c27 40 44 41 44 1 0 -14 5 -35 11 -46 9 -16 8 -19 -2 -13 -9 6 -11
4 -6 -7 4 -12 1 -14 -15 -10 -14 3 -19 1 -14 -6 3 -6 2 -13 -3 -16 -11 -7 -9
13 2 32 6 8 1 12 -17 12 -14 0 -26 -4 -26 -9 0 -5 -8 -11 -17 -13 -15 -4 -18
3 -18 46 0 47 8 65 28 66 4 0 7 -17 7 -37z m23 22 c-3 -9 -8 -14 -10 -11 -3 3
-2 9 2 15 9 16 15 13 8 -4z"/>
<path d="M6020 4881 c0 -6 10 -11 23 -11 42 1 103 -7 114 -13 6 -4 13 -1 16 6
3 8 0 14 -6 14 -7 1 -42 4 -79 8 -48 5 -68 4 -68 -4z"/>
<path d="M6200 4858 c0 -6 3 -9 6 -6 3 4 19 2 36 -2 25 -8 28 -7 18 5 -15 18
-60 20 -60 3z"/>
<path d="M6276 4856 c4 -10 16 -14 35 -12 15 2 30 -2 33 -8 2 -6 5 -3 5 7 1
14 -5 18 -27 16 -15 -2 -33 0 -39 4 -9 6 -11 3 -7 -7z"/>
<path d="M10082 4837 c-14 -15 -22 -36 -22 -60 0 -50 28 -77 80 -77 53 0 80
27 80 79 0 31 -6 44 -26 60 -36 28 -85 27 -112 -2z m43 -51 c0 -51 -3 -62 -14
-58 -10 4 -12 1 -6 -9 5 -8 4 -11 0 -6 -5 4 -8 28 -6 52 1 27 -2 45 -8 45 -19
0 -12 16 12 28 12 6 22 11 22 11 0 1 0 -28 0 -63z m71 36 c11 -16 9 -18 -20
-15 -28 3 -29 2 -8 -7 29 -12 38 -36 21 -56 -14 -18 -50 -15 -57 5 -3 9 2 11
17 6 15 -4 21 -2 21 8 0 8 -8 14 -17 13 -18 -1 -28 25 -19 50 8 20 49 18 62
-4z"/>
<path d="M6405 4842 c-11 -12 -3 -18 23 -18 15 0 39 -4 55 -7 22 -6 27 -4 26
10 0 11 -2 13 -6 5 -3 -8 -9 -10 -16 -4 -14 11 -75 21 -82 14z"/>
<path d="M4330 4788 c0 -23 3 -29 9 -19 6 9 18 11 35 7 15 -4 26 -2 26 4 0 5
-9 10 -20 10 -11 0 -23 7 -26 15 -10 26 -24 16 -24 -17z"/>
<path d="M8537 4793 c-5 -29 2 -48 10 -25 3 6 19 12 36 13 l32 1 -30 10 c-16
6 -33 15 -36 20 -4 6 -9 -3 -12 -19z"/>
<path d="M7468 4763 c6 -2 18 -2 25 0 6 3 1 5 -13 5 -14 0 -19 -2 -12 -5z"/>
<path d="M7558 4753 c7 -3 16 -2 19 1 4 3 -2 6 -13 5 -11 0 -14 -3 -6 -6z"/>
<path d="M7620 4750 c8 -5 20 -10 25 -10 6 0 3 5 -5 10 -8 5 -19 10 -25 10 -5
0 -3 -5 5 -10z"/>
<path d="M4322 4723 c2 -23 8 -29 36 -31 17 -2 32 1 32 7 0 5 3 16 6 25 3 9 1
16 -5 16 -6 0 -11 -9 -11 -21 0 -11 -4 -18 -10 -14 -5 3 -7 12 -3 20 3 8 0 15
-6 15 -6 0 -11 -7 -11 -15 0 -8 -5 -15 -11 -15 -6 0 -8 9 -4 20 4 12 2 20 -5
20 -6 0 -10 -12 -8 -27z"/>
<path d="M8530 4721 c0 -29 3 -31 34 -31 28 0 34 4 38 25 3 14 1 25 -3 25 -5
0 -9 -9 -9 -20 0 -28 -20 -25 -21 3 -1 16 -2 18 -6 5 -2 -10 -9 -18 -15 -18
-5 0 -8 7 -5 15 4 8 2 17 -3 20 -6 4 -10 -7 -10 -24z"/>
<path d="M2580 4658 c0 -23 3 -29 9 -19 6 9 18 11 35 7 15 -4 26 -2 26 4 0 5
-9 10 -20 10 -11 0 -23 7 -26 15 -10 26 -24 16 -24 -17z"/>
<path d="M4312 4653 c2 -23 9 -29 34 -31 27 -3 32 1 36 22 3 15 1 26 -3 26 -5
0 -9 -7 -9 -15 0 -8 -5 -15 -11 -15 -6 0 -9 7 -5 15 3 8 1 15 -4 15 -6 0 -10
-7 -10 -15 0 -8 -5 -15 -11 -15 -6 0 -8 9 -4 20 4 12 2 20 -5 20 -6 0 -10 -12
-8 -27z"/>
<path d="M4970 4676 c0 -2 7 -7 16 -10 8 -3 12 -2 9 4 -6 10 -25 14 -25 6z"/>
<path d="M8527 4661 c-8 -34 -1 -41 39 -41 31 0 34 3 34 28 l-1 27 -14 -25
-14 -25 -1 25 c-1 24 -1 24 -12 5 -12 -19 -12 -19 -18 5 l-6 25 -7 -24z"/>
<path d="M7965 4613 c-58 -57 -32 -137 47 -149 74 -13 119 86 63 141 -29 30
-85 34 -110 8z m85 -15 c0 -6 8 -21 18 -32 17 -21 17 -21 -4 -3 -11 9 -29 17
-40 16 -17 0 -16 -1 4 -9 12 -5 22 -13 23 -17 0 -4 2 -18 3 -31 2 -13 -2 -26
-7 -29 -6 -4 -7 -1 -2 7 5 9 2 10 -14 5 -13 -4 -28 -1 -36 5 -19 16 -10 29 15
23 11 -3 20 0 20 6 0 6 -9 11 -20 11 -16 0 -20 7 -20 30 0 27 3 30 30 30 17 0
30 -5 30 -12z m-60 -108 c0 -5 -2 -10 -4 -10 -3 0 -8 5 -11 10 -3 6 -1 10 4
10 6 0 11 -4 11 -10z"/>
<path d="M2570 4591 c0 -24 5 -29 32 -35 36 -7 33 -9 42 27 4 16 2 27 -4 27
-5 0 -10 -9 -10 -20 0 -11 -5 -20 -11 -20 -6 0 -9 7 -6 15 4 8 2 17 -3 20 -6
4 -10 -1 -10 -9 0 -9 -5 -16 -11 -16 -6 0 -8 9 -4 20 4 11 2 20 -4 20 -6 0
-11 -13 -11 -29z"/>
<path d="M4299 4584 c-12 -32 -13 -31 34 -39 23 -5 37 -3 37 3 0 6 -6 12 -12
15 -9 3 -7 10 7 21 20 17 20 17 -2 11 -12 -3 -24 -1 -28 5 -11 17 -25 11 -36
-16z m31 -9 c0 -8 -4 -15 -10 -15 -5 0 -10 7 -10 15 0 8 5 15 10 15 6 0 10 -7
10 -15z"/>
<path d="M8531 4601 c-7 -5 -11 -19 -9 -32 2 -19 10 -25 36 -27 18 -2 32 1 32
7 0 6 -5 11 -12 11 -6 0 -3 10 8 22 18 21 18 21 0 15 -10 -4 -24 -3 -30 2 -6
6 -18 6 -25 2z m15 -38 c-10 -10 -19 5 -10 18 6 11 8 11 12 0 2 -7 1 -15 -2
-18z"/>
<path d="M2556 4527 c-10 -33 -10 -32 31 -40 29 -6 33 -4 39 19 8 33 -3 43
-15 13 l-10 -24 -1 25 c-1 23 -1 24 -15 7 -13 -18 -14 -17 -17 5 -4 22 -5 22
-12 -5z"/>
<path d="M4287 4504 c-3 -19 -1 -24 10 -20 8 3 26 6 39 6 14 0 22 4 19 10 -3
6 -15 10 -26 10 -10 0 -19 5 -19 10 0 21 -18 9 -23 -16z"/>
<path d="M8510 4498 c0 -19 4 -28 8 -21 4 6 23 13 42 15 l35 4 -32 8 c-18 5
-33 12 -33 17 0 5 -4 9 -10 9 -5 0 -10 -15 -10 -32z"/>
<path d="M9796 4508 c-9 -42 -56 -435 -55 -459 1 -15 3 -18 6 -8 3 13 14 16
51 13 l47 -3 -47 11 c-30 7 -48 17 -48 26 0 11 10 13 45 9 26 -4 45 -2 45 4 0
5 -18 9 -40 9 -27 0 -40 4 -40 14 0 10 12 13 48 10 l47 -3 -47 11 c-30 7 -48
17 -48 26 0 11 10 13 45 10 25 -3 45 -2 45 3 0 5 -18 9 -40 9 -30 0 -40 4 -40
16 0 14 7 15 45 10 29 -5 45 -4 45 3 0 6 -20 11 -46 11 -32 0 -44 4 -41 13 2
7 20 11 48 10 33 -2 39 -1 24 6 -11 5 -30 10 -42 10 -14 1 -23 7 -23 17 0 13
8 14 46 8 34 -5 45 -4 40 5 -4 6 -25 11 -47 11 -28 0 -39 4 -36 13 2 7 20 11
48 10 33 -2 39 -1 24 6 -11 5 -30 10 -42 10 -14 1 -23 7 -23 17 0 14 7 16 45
11 27 -4 45 -3 45 3 0 6 -20 10 -45 10 -35 0 -45 4 -45 16 0 14 8 16 51 10 34
-5 49 -4 44 4 -3 5 -25 10 -47 10 l-41 0 6 50 c6 51 1 68 -7 28z"/>
<path d="M9883 4523 c9 -2 25 -2 35 0 9 3 1 5 -18 5 -19 0 -27 -2 -17 -5z"/>
<path d="M9970 4512 c0 -15 27 -45 36 -41 5 2 -1 14 -13 26 -13 12 -23 19 -23
15z"/>
<path d="M10157 4478 c-5 -20 -4 -21 6 -7 7 9 19 18 27 22 10 4 9 6 -6 6 -14
1 -24 -7 -27 -21z"/>
<path d="M10241 4487 c2 -1 12 -9 22 -16 15 -12 17 -12 11 3 -3 9 -13 16 -22
16 -8 0 -13 -1 -11 -3z"/>
<path d="M2552 4468 c-22 -22 -14 -46 19 -53 34 -8 51 1 29 15 -12 8 -12 10 3
16 9 3 17 10 17 15 0 4 -6 6 -14 3 -8 -3 -17 -1 -21 5 -8 14 -18 14 -33 -1z
m28 -17 c0 -6 -4 -13 -10 -16 -5 -3 -10 1 -10 9 0 9 5 16 10 16 6 0 10 -4 10
-9z"/>
<path d="M9810 4469 c0 -5 19 -9 42 -9 49 0 47 5 -4 13 -21 3 -38 2 -38 -4z"/>
<path d="M10067 4449 c6 -20 3 -21 -36 -17 -53 5 -54 -7 -1 -16 55 -9 50 -26
-7 -27 -40 -1 -34 -3 37 -14 48 -7 89 -9 95 -4 5 5 -9 9 -33 9 -32 0 -42 4
-42 16 0 14 7 16 40 11 22 -3 40 -1 40 4 0 5 -15 9 -33 9 -41 0 -49 7 -36 31
8 16 6 19 -10 19 -15 0 -18 -5 -14 -21z"/>
<path d="M4277 4446 c-3 -8 1 -20 10 -27 13 -11 17 -10 28 4 17 23 24 21 17
-5 -3 -14 -2 -19 6 -14 15 9 15 43 0 52 -6 4 -16 0 -23 -9 -15 -21 -29 -22
-21 -2 3 8 1 15 -3 15 -5 0 -11 -6 -14 -14z"/>
<path d="M8507 4453 c-12 -12 -7 -33 8 -40 9 -3 23 3 31 13 13 16 15 17 10 2
-3 -10 -1 -20 4 -23 11 -7 24 31 15 45 -9 15 -35 12 -41 -5 -4 -8 -10 -15 -15
-15 -4 0 -6 7 -3 15 6 16 2 20 -9 8z"/>
<path d="M10318 4454 c29 -13 11 -29 -30 -27 l-43 2 43 -11 c58 -15 59 -43 1
-33 -29 5 -40 4 -35 -4 4 -6 20 -11 37 -11 20 0 29 -5 29 -16 0 -13 -7 -15
-35 -10 -22 4 -35 3 -35 -4 0 -5 16 -10 35 -10 19 0 35 -5 35 -10 0 -7 -13 -8
-36 -4 -43 8 -54 -4 -54 -58 0 -35 -5 -42 -75 -93 -41 -31 -97 -83 -123 -115
-26 -32 -127 -132 -224 -221 -98 -89 -178 -166 -178 -171 0 -15 370 333 415
390 23 29 76 77 118 108 74 53 76 55 79 102 l3 47 41 -3 42 -4 7 71 c9 89 9
86 -12 88 -10 2 -12 0 -5 -3z"/>
<path d="M6450 4426 c0 -2 8 -10 18 -17 15 -13 16 -12 3 4 -13 16 -21 21 -21
13z"/>
<path d="M2538 4404 c-5 -4 -8 -17 -8 -29 0 -18 5 -20 35 -17 35 4 40 22 5 22
-10 0 -20 7 -22 16 -2 9 -6 12 -10 8z"/>
<path d="M7840 4370 c0 -5 5 -10 10 -10 6 0 10 5 10 10 0 6 -4 10 -10 10 -5 0
-10 -4 -10 -10z"/>
<path d="M4265 4360 c3 -5 14 -10 23 -11 14 0 13 -3 -5 -16 -32 -22 -29 -30
12 -35 19 -2 35 0 35 4 0 4 -10 8 -22 8 -22 0 -22 1 6 23 l29 24 -33 6 c-44 9
-52 9 -45 -3z"/>
<path d="M8497 4354 c-18 -18 -6 -42 25 -48 38 -7 51 3 45 35 l-4 24 -9 -25
-8 -25 -7 25 -7 25 -8 -25 -8 -25 -5 23 c-4 13 -9 20 -14 16z"/>
<path d="M9980 4352 c0 -6 17 -12 37 -14 20 -2 39 -9 41 -17 4 -11 -4 -13 -37
-8 -22 3 -41 1 -41 -4 0 -5 16 -9 36 -9 24 0 34 -4 31 -12 -2 -7 -20 -13 -40
-13 -21 0 -37 -3 -37 -7 0 -5 14 -8 30 -8 17 0 30 -4 30 -10 0 -5 -17 -8 -37
-7 -30 2 -39 -2 -50 -23 -16 -32 -17 -120 -1 -120 6 0 34 24 62 53 28 28 66
60 83 69 35 18 36 42 2 53 -12 4 -19 16 -19 32 0 24 2 25 40 20 22 -3 40 -2
40 3 0 4 -28 11 -62 14 -35 4 -73 10 -85 13 -13 3 -23 1 -23 -5z m111 -92 c22
0 6 -20 -36 -45 -25 -14 -56 -42 -68 -60 -36 -57 -50 -54 -42 7 9 68 11 70 49
68 51 -3 56 -1 56 21 0 15 4 19 16 15 9 -3 20 -6 25 -6z"/>
<path d="M8136 4335 c-3 -8 -1 -15 4 -15 6 0 10 7 10 15 0 8 -2 15 -4 15 -2 0
-6 -7 -10 -15z"/>
<path d="M2520 4311 c0 -27 21 -37 35 -18 17 24 28 21 20 -4 -5 -15 -4 -19 4
-15 17 11 14 56 -4 56 -9 0 -18 -7 -21 -15 -4 -8 -11 -15 -16 -15 -6 0 -8 7
-4 15 3 8 1 15 -4 15 -6 0 -10 -9 -10 -19z"/>
<path d="M9155 4318 c-77 -42 -49 -158 38 -158 60 0 97 54 77 114 -16 48 -70
69 -115 44z m40 -18 c5 -8 11 -7 20 0 23 19 35 2 35 -51 0 -37 -4 -49 -15 -49
-8 0 -15 -6 -16 -12 0 -10 -2 -10 -6 0 -2 6 -20 12 -39 12 -39 0 -45 17 -14
45 11 10 20 22 20 27 0 5 -9 6 -20 3 -14 -4 -20 -2 -20 8 0 24 43 36 55 17z"/>
<path d="M9197 4255 c-15 -21 -15 -25 -3 -25 8 0 17 -8 19 -17 3 -10 5 1 6 25
0 23 0 42 -1 42 -2 0 -11 -12 -21 -25z"/>
<path d="M7845 4310 c-19 -8 -19 -9 3 -9 12 -1 22 4 22 9 0 6 -1 10 -2 9 -2 0
-12 -4 -23 -9z"/>
<path d="M10084 4298 c-3 -4 11 -8 30 -8 20 0 36 2 36 4 0 8 -61 12 -66 4z"/>
<path d="M8141 4274 c0 -11 3 -14 6 -6 3 7 2 16 -1 19 -3 4 -6 -2 -5 -13z"/>
<path d="M8505 4276 c18 -13 18 -14 -5 -26 -24 -13 -24 -13 -5 -21 29 -11 65
-11 65 1 0 6 -10 10 -22 11 l-23 0 23 16 c32 22 27 33 -15 33 -34 0 -35 -1
-18 -14z"/>
<path d="M4257 4274 c-12 -12 -8 -51 7 -63 24 -20 58 4 54 37 -2 20 -9 28 -28
30 -14 2 -29 0 -33 -4z m51 -31 c5 -17 -26 -29 -40 -15 -6 6 -7 15 -3 22 9 14
37 9 43 -7z"/>
<path d="M4864 4239 c-12 -13 -19 -35 -19 -61 0 -51 30 -78 85 -78 45 0 80 35
80 80 0 15 -9 39 -21 54 -27 34 -96 37 -125 5z m57 -3 c-7 -8 -11 -27 -8 -43
4 -28 4 -28 6 3 2 63 56 50 63 -15 4 -43 -21 -63 -53 -42 -19 11 -21 11 -17
-1 4 -8 -1 -14 -11 -14 -13 0 -15 9 -12 43 2 27 -1 43 -8 43 -21 0 -11 18 17
28 37 14 36 14 23 -2z"/>
<path d="M4940 4199 c0 -5 5 -7 10 -4 6 3 10 8 10 11 0 2 -4 4 -10 4 -5 0 -10
-5 -10 -11z"/>
<path d="M4935 4160 c3 -5 10 -10 16 -10 5 0 9 5 9 10 0 6 -7 10 -16 10 -8 0
-12 -4 -9 -10z"/>
<path d="M1440 4222 c-39 -39 -39 -74 -1 -113 31 -31 59 -36 94 -18 28 15 38
30 32 47 -3 8 0 10 7 6 16 -10 3 66 -15 83 -7 8 -30 16 -50 20 -31 5 -40 1
-67 -25z m45 8 c-4 -6 8 -10 29 -10 41 0 42 -1 19 -57 -18 -42 -33 -52 -66
-45 -15 3 -18 11 -15 38 3 24 0 33 -8 30 -21 -8 -3 31 19 42 28 14 29 14 22 2z"/>
<path d="M1480 4162 l1 -47 19 35 c24 44 24 47 0 53 -18 5 -20 0 -20 -41z"/>
<path d="M2510 4232 c0 -6 5 -14 11 -17 6 -5 4 -12 -8 -21 -16 -13 -14 -14 22
-8 49 8 54 12 29 20 -10 4 -27 14 -36 22 -11 9 -18 11 -18 4z"/>
<path d="M3383 4230 c-34 -14 -28 -23 11 -18 35 4 37 -1 9 -33 -11 -14 -11
-18 0 -28 12 -9 16 -6 20 18 7 34 39 49 65 30 11 -8 10 -5 -3 9 -23 25 -71 35
-102 22z"/>
<path d="M8484 4198 c-3 -4 1 -8 8 -8 7 0 23 -3 36 -6 12 -4 22 -2 22 4 0 12
-59 22 -66 10z"/>
<path d="M3340 4157 c0 -28 4 -33 25 -35 14 -1 25 3 25 8 0 6 -7 10 -16 10
-11 0 -15 6 -11 19 3 12 -1 22 -9 25 -10 4 -14 -3 -14 -27z"/>
<path d="M4234 4179 c-3 -6 1 -18 10 -27 16 -16 18 -16 27 1 13 22 30 22 22 0
-4 -11 -3 -14 5 -9 17 10 15 36 -3 43 -9 3 -23 -3 -31 -13 -14 -17 -15 -17
-10 -1 6 19 -9 24 -20 6z"/>
<path d="M3444 4166 c-8 -22 3 -49 19 -43 6 2 12 14 12 27 0 27 -22 39 -31 16z"/>
<path d="M8475 4150 c-9 -30 2 -40 43 -40 27 0 33 3 22 10 -12 7 -12 12 -2 22
19 19 15 23 -22 25 -27 2 -36 -2 -41 -17z m35 -10 c0 -5 -4 -10 -10 -10 -5 0
-10 5 -10 10 0 6 5 10 10 10 6 0 10 -4 10 -10z"/>
<path d="M2490 4136 c0 -35 62 -52 74 -20 9 23 7 34 -4 34 -5 0 -10 -7 -10
-15 0 -8 -4 -15 -10 -15 -5 0 -7 7 -4 15 4 8 1 15 -4 15 -6 0 -13 -8 -15 -17
-4 -14 -5 -12 -6 5 -1 30 -21 28 -21 -2z"/>
<path d="M11070 4060 c0 -75 1 -80 21 -80 16 0 20 5 16 20 -8 32 14 36 35 7
11 -15 29 -27 40 -27 19 0 20 1 4 25 -16 24 -16 27 4 52 l20 26 0 -29 c0 -35
8 -47 37 -63 34 -17 62 -13 88 14 51 51 17 135 -55 135 -29 0 -43 -6 -57 -24
l-19 -24 -21 24 c-17 19 -32 24 -67 24 l-46 0 0 -80z m55 63 c-11 -3 -23 -10
-27 -17 -5 -7 -8 -7 -8 0 0 16 11 24 34 23 20 -1 20 -1 1 -6z m45 -8 c11 -13
10 -14 -4 -9 -9 3 -16 10 -16 15 0 13 6 11 20 -6z m76 -14 c-8 -9 -16 -25 -19
-36 -4 -15 -5 -13 -6 8 0 15 4 27 10 27 5 0 8 4 5 8 -3 5 1 9 9 9 13 0 13 -3
1 -16z m70 -19 c-2 -45 -12 -62 -35 -62 -22 0 -41 19 -41 41 0 23 37 49 58 42
10 -4 13 -2 8 5 -4 7 -3 12 2 12 6 0 9 -17 8 -38z m-158 6 c-2 -6 -13 -16 -23
-22 -11 -6 -24 -17 -30 -24 -8 -11 -11 -9 -11 7 0 11 5 17 10 14 5 -4 7 1 3 9
-7 21 1 28 31 28 14 0 22 -5 20 -12z m7 -40 c-10 -13 -14 -16 -11 -8 3 8 9 24
13 35 4 11 8 14 11 7 2 -6 -4 -22 -13 -34z m156 -39 c-13 -10 -31 -19 -40 -18
-10 0 -7 4 9 10 14 6 29 17 33 25 5 9 12 13 15 9 4 -4 -4 -15 -17 -26z"/>
<path d="M11395 4103 c-9 -20 -18 -47 -21 -60 -6 -24 -5 -24 77 -9 10 2 16 -3
16 -13 0 -35 4 -41 22 -41 17 0 16 6 -12 80 -35 93 -57 104 -82 43z m18 -24
c-8 -16 -17 -28 -19 -26 -7 6 18 57 27 57 4 0 1 -14 -8 -31z m40 11 c3 -12 1
-18 -5 -14 -6 4 -8 -1 -3 -15 5 -17 2 -21 -13 -21 -15 0 -19 5 -15 20 3 11 9
20 14 20 5 0 9 7 9 15 0 21 7 19 13 -5z"/>
<path d="M11518 4060 l4 -80 41 0 c50 1 75 18 86 57 17 62 -22 103 -97 103
l-37 0 3 -80z m35 53 c-15 -6 -18 -93 -3 -93 6 0 10 18 10 41 0 36 2 40 23 37
30 -4 31 -56 2 -72 -11 -6 -22 -13 -25 -16 -17 -17 -27 -3 -29 41 -2 53 3 69
22 68 9 0 9 -2 0 -6z m87 -52 c0 -30 -22 -61 -43 -61 -6 0 -1 7 11 16 14 10
22 25 22 45 0 16 2 29 5 29 3 0 5 -13 5 -29z"/>
<path d="M4225 4109 c-9 -26 8 -39 50 -39 23 0 26 3 15 10 -8 5 -16 14 -16 20
-1 5 -2 15 -3 20 -2 19 -40 10 -46 -11z m35 -9 c0 -5 -4 -10 -10 -10 -5 0 -10
5 -10 10 0 6 5 10 10 10 6 0 10 -4 10 -10z"/>
<path d="M3413 4105 c4 -8 1 -17 -5 -21 -6 -4 -8 -3 -5 3 4 5 -6 10 -23 10
-26 0 -27 -2 -12 -13 22 -17 71 -17 102 1 29 17 22 19 -14 5 -14 -5 -25 -6
-25 -2 3 19 -2 32 -12 32 -6 0 -9 -7 -6 -15z"/>
<path d="M5807 4081 c-4 -16 2 -25 23 -36 60 -31 46 -71 -38 -114 -72 -37
-108 -70 -132 -123 -26 -57 -25 -75 4 -80 18 -4 27 1 35 18 14 32 50 53 94 56
36 3 37 4 37 41 l0 37 54 0 c30 0 58 -4 61 -10 8 -13 42 -13 50 -1 3 5 -2 25
-11 44 -48 100 78 186 157 108 33 -34 39 -83 13 -119 -18 -26 -11 -42 19 -42
38 0 50 16 54 72 5 62 -16 110 -60 142 -25 19 -45 21 -191 24 -159 4 -163 3
-169 -17z"/>
<path d="M8470 4070 c0 -28 2 -30 40 -30 36 0 40 3 40 25 0 14 -4 25 -10 25
-5 0 -10 -9 -10 -21 0 -11 -4 -18 -10 -14 -5 3 -7 12 -3 20 3 8 0 15 -5 15 -6
0 -13 -8 -15 -17 -4 -14 -5 -12 -6 5 -2 33 -21 27 -21 -8z"/>
<path d="M2540 4064 c0 -12 -7 -14 -30 -9 -17 4 -30 2 -30 -3 0 -8 61 -24 66
-18 9 9 13 46 5 46 -6 0 -11 -7 -11 -16z"/>
<path d="M4220 4047 c0 -8 6 -18 13 -21 8 -3 7 -8 -5 -16 -29 -18 -21 -30 20
-29 20 1 29 3 20 6 -20 5 -25 23 -7 23 8 0 7 6 -2 16 -12 15 -11 16 9 10 13
-5 22 -3 22 3 0 6 -6 11 -12 11 -7 0 -23 3 -35 6 -17 5 -23 2 -23 -9z"/>
<path d="M2470 4020 c0 -9 5 -21 12 -28 9 -9 8 -12 -6 -12 -9 0 -14 -4 -11
-10 3 -5 23 -10 43 -10 32 0 34 1 18 13 -17 12 -17 14 -2 20 9 4 16 11 16 17
0 7 -6 7 -21 0 -17 -9 -23 -8 -35 7 -11 15 -13 15 -14 3z"/>
<path d="M8478 4013 c17 -7 15 -33 -3 -33 -8 0 -15 -4 -15 -10 0 -5 19 -9 43
-9 23 1 34 3 25 6 -22 5 -24 33 -3 33 8 0 15 5 15 10 0 6 -17 10 -37 9 -21 0
-32 -3 -25 -6z"/>
<path d="M9755 4008 c52 -18 57 -27 37 -60 -9 -17 -35 -45 -56 -64 -22 -19
-37 -34 -33 -34 4 0 25 17 48 37 45 40 71 84 61 100 -10 15 -48 33 -69 32 -11
0 -6 -5 12 -11z"/>
<path d="M10375 4010 c-2 -3 -39 -65 -84 -138 l-80 -132 46 -78 c26 -42 63
-103 82 -136 l36 -59 168 -1 167 -1 80 133 c44 74 80 137 80 142 0 4 -25 48
-56 96 -31 49 -67 111 -80 137 l-25 48 -165 -3 c-91 -2 -167 -5 -169 -8z m341
-25 c12 -18 -2 -43 -139 -265 -111 -178 -158 -246 -173 -248 -17 -2 -30 12
-63 67 -22 38 -41 72 -41 75 0 3 55 93 121 201 l122 196 80 -3 c67 -3 82 -6
93 -23z m67 -378 c-73 -122 -81 -132 -111 -135 -18 -2 -32 0 -32 4 0 6 78 136
158 263 l35 54 14 -27 c14 -27 12 -32 -64 -159z"/>
<path d="M11355 4002 c-8 -20 -7 -22 15 -22 10 0 23 6 27 14 4 8 22 16 38 19
17 3 6 4 -22 3 -34 -1 -55 -6 -58 -14z"/>
<path d="M4210 3956 c-6 -8 -10 -25 -8 -38 2 -18 9 -23 33 -23 24 0 31 5 33
23 4 25 -13 52 -33 52 -7 0 -18 -7 -25 -14z m45 -16 c4 -6 1 -18 -6 -26 -11
-13 -14 -13 -27 0 -8 8 -11 19 -8 25 9 14 33 14 41 1z"/>
<path d="M7655 3948 c-52 -28 -62 -92 -20 -133 51 -52 145 -12 145 60 0 61
-71 103 -125 73z m23 -20 c17 -17 15 -38 -5 -60 -16 -17 -15 -18 5 -15 23 3
62 34 62 49 0 5 -8 7 -19 3 -13 -4 -20 0 -23 13 -4 13 0 18 16 17 47 -1 60
-33 29 -68 -17 -19 -17 -20 0 -14 11 4 17 1 17 -8 0 -12 -14 -15 -64 -15 -36
0 -67 4 -70 9 -3 4 6 19 19 31 30 28 32 44 5 35 -11 -3 -20 -2 -20 2 0 10 21
33 30 33 3 0 11 -5 18 -12z"/>
<path d="M8457 3924 c-6 -33 0 -45 12 -25 6 9 18 11 35 7 15 -4 26 -2 26 4 0
5 -11 10 -25 10 -13 0 -28 7 -33 16 -8 14 -10 11 -15 -12z"/>
<path d="M2517 3926 c-5 -13 -14 -17 -31 -12 -14 3 -27 2 -30 -3 -5 -8 64 -24
72 -17 2 3 2 15 0 28 -3 21 -4 21 -11 4z"/>
<path d="M10994 3930 c-29 -11 -48 -69 -35 -103 20 -52 83 -73 115 -38 14 16
15 20 2 30 -11 10 -19 9 -36 -1 -18 -11 -23 -10 -36 6 -18 25 -18 29 4 56 15
19 22 21 39 12 16 -9 24 -8 32 2 9 11 7 18 -11 30 -25 18 -42 19 -74 6z m36
-17 c-8 -3 -23 -13 -33 -22 -15 -13 -18 -13 -15 -1 4 20 19 30 43 29 14 0 16
-2 5 -6z m-53 -65 c-3 -8 -6 -5 -6 6 -1 11 2 17 5 13 3 -3 4 -12 1 -19z m17
-34 c5 -14 4 -15 -9 -4 -17 14 -19 20 -6 20 5 0 12 -7 15 -16z m76 -14 c0 -5
-5 -10 -11 -10 -5 0 -7 5 -4 10 3 6 8 10 11 10 2 0 4 -4 4 -10z"/>
<path d="M11236 3919 c-20 -16 -26 -29 -26 -59 0 -53 27 -84 75 -84 73 0 101
80 46 135 -35 34 -59 36 -95 8z m49 -6 c-25 -6 -45 -22 -45 -36 0 -5 9 -2 21
9 15 14 24 16 37 8 35 -23 22 -84 -18 -84 -10 0 -20 -3 -23 -7 -2 -5 -3 -3 -2
2 2 6 -5 26 -14 45 -14 31 -15 37 -1 53 8 9 26 16 40 16 20 -1 21 -2 5 -6z
m51 -97 c-13 -21 -63 -46 -50 -25 3 5 10 9 16 9 15 0 37 31 39 55 1 18 2 18 6
2 3 -10 -2 -28 -11 -41z"/>
<path d="M11388 3930 c-31 -19 -15 -90 20 -90 9 0 24 -5 32 -10 24 -16 -7 -31
-38 -19 -38 14 -51 -12 -14 -28 41 -18 60 -16 87 12 l25 24 0 -25 c0 -24 2
-25 57 -22 46 2 59 7 61 21 3 14 -4 17 -35 17 -22 0 -44 -5 -51 -12 -9 -9 -12
-9 -12 0 0 7 5 12 10 12 6 0 10 7 10 15 0 10 11 15 35 15 24 0 35 5 35 15 0
10 -11 15 -35 15 -24 0 -35 5 -35 15 0 10 11 15 35 15 24 0 35 5 35 15 0 12
-13 15 -55 15 l-55 0 0 -50 0 -51 -27 20 c-34 24 -73 36 -73 23 0 -6 6 -13 13
-15 9 -4 9 -6 0 -6 -19 -1 -26 19 -12 35 9 10 22 14 41 10 28 -6 47 9 31 25
-14 14 -67 20 -85 9z m79 -16 c-3 -4 -24 -7 -47 -8 -23 -1 -35 1 -28 6 15 9
84 11 75 2z m103 -1 c-19 -2 -41 -11 -47 -20 -7 -9 -13 -12 -13 -7 0 20 25 34
60 32 l35 -1 -35 -4z m19 -59 c2 -2 -10 -4 -27 -4 -19 0 -35 -7 -41 -17 -6
-10 -11 -13 -11 -6 0 6 5 15 10 18 6 4 8 11 5 16 -5 8 54 1 64 -7z m-120 -46
c-5 -10 -12 -18 -15 -18 -2 0 -1 8 4 18 5 9 7 24 5 32 -4 13 -3 13 6 1 6 -10
6 -21 0 -33z"/>
<path d="M11101 3850 l1 -80 54 0 c48 0 54 2 54 21 0 18 -5 21 -37 17 l-38 -3
3 62 c3 58 2 63 -17 63 -20 0 -21 -5 -20 -80z"/>
<path d="M11630 3849 l0 -82 47 7 c75 10 108 58 79 115 -18 34 -34 41 -87 41
l-39 0 0 -81z m98 55 c29 -20 30 -74 2 -99 -11 -10 -23 -15 -27 -12 -3 4 -2 7
4 7 12 0 33 44 33 70 0 11 -5 20 -11 20 -6 0 -9 -9 -6 -19 6 -23 -18 -61 -39
-61 -10 0 -14 12 -14 45 0 44 1 45 28 39 18 -5 24 -3 17 4 -5 5 -19 12 -30 15
-20 5 -20 5 0 6 11 0 31 -6 43 -15z m-81 -66 c-2 -13 -4 -3 -4 22 0 25 2 35 4
23 2 -13 2 -33 0 -45z"/>
<path d="M8872 3887 c-22 -23 -29 -68 -16 -102 17 -43 112 -49 142 -8 20 28
15 89 -10 113 -31 28 -88 27 -116 -3z m38 -14 c0 -15 1 -15 18 0 23 21 27 21
46 1 18 -17 22 -69 6 -79 -6 -4 -8 -10 -5 -15 3 -4 -4 -6 -14 -3 -10 3 -29 -1
-41 -7 -15 -8 -20 -8 -16 -1 4 6 1 11 -7 11 -18 0 -29 91 -13 102 17 12 26 9
26 -9z"/>
<path d="M8937 3846 c-3 -8 0 -22 7 -32 13 -17 14 -16 20 4 11 34 -15 60 -27
28z"/>
<path d="M8910 3795 c0 -8 4 -15 10 -15 5 0 7 7 4 15 -4 8 -8 15 -10 15 -2 0
-4 -7 -4 -15z"/>
<path d="M2450 3881 c0 -5 10 -11 23 -13 33 -5 29 -34 -5 -30 -16 1 -28 -2
-28 -8 0 -5 15 -10 34 -10 58 0 57 47 -1 65 -13 3 -23 2 -23 -4z"/>
<path d="M4190 3871 c0 -6 7 -11 15 -11 23 0 18 -21 -6 -27 -28 -8 -4 -23 36
-23 25 1 27 2 13 11 -22 12 -23 29 -3 29 8 0 15 5 15 10 0 6 -9 10 -19 10 -11
0 -26 3 -35 6 -9 3 -16 1 -16 -5z"/>
<path d="M8473 3870 c-30 -12 -29 -22 6 -43 39 -23 43 -22 35 9 -4 17 -2 29 7
35 19 12 -18 11 -48 -1z"/>
<path d="M9523 3838 c0 -7 0 -42 -1 -78 l-1 -65 -143 -137 c-78 -76 -137 -138
-131 -138 7 0 14 4 17 8 2 4 23 6 45 4 38 -4 40 -5 34 -33 -3 -15 -2 -49 2
-74 5 -39 9 -44 21 -34 19 15 20 151 2 148 -7 -1 -31 -1 -53 0 l-40 2 128 123
c115 112 127 127 127 158 0 20 3 56 6 82 4 29 3 46 -4 46 -5 0 -10 -6 -9 -12z"/>
<path d="M9980 3820 c-9 -6 -10 -10 -3 -10 6 0 15 5 18 10 8 12 4 12 -15 0z"/>
<path d="M2437 3793 c-13 -12 -7 -41 9 -47 30 -12 52 -6 57 16 3 12 4 25 1 30
-6 10 -58 11 -67 1z m19 -30 c-10 -10 -19 5 -10 18 6 11 8 11 12 0 2 -7 1 -15
-2 -18z m30 0 c-10 -10 -19 5 -10 18 6 11 8 11 12 0 2 -7 1 -15 -2 -18z"/>
<path d="M4176 3782 c-8 -23 3 -48 11 -26 2 6 17 8 35 6 21 -3 29 -1 24 7 -4
6 -18 11 -31 11 -13 0 -25 6 -28 13 -2 6 -7 2 -11 -11z"/>
<path d="M8440 3786 c0 -29 13 -46 35 -46 29 0 50 24 40 47 -7 16 -9 15 -14
-7 -9 -31 -35 -33 -39 -2 -4 24 -22 31 -22 8z"/>
<path d="M6843 3641 c-18 -43 -19 -51 -6 -51 13 0 14 -13 9 -87 -4 -49 -9
-104 -12 -123 -3 -26 -2 -30 5 -15 4 11 12 66 16 123 5 77 11 102 21 102 17 0
17 23 0 68 l-12 33 -21 -50z"/>
<path d="M9416 3659 c2 -4 0 -10 -6 -14 -5 -3 -10 -11 -10 -17 0 -6 9 -3 20 7
24 21 25 32 5 32 -8 0 -12 -4 -9 -8z"/>
<path d="M4590 3626 c0 -11 30 -39 36 -34 2 3 -5 13 -16 23 -11 10 -20 15 -20
11z"/>
<path d="M9561 3616 c-8 -9 -10 -35 -5 -81 7 -64 8 -66 24 -48 14 14 17 30 13
81 -6 63 -12 73 -32 48z"/>
<path d="M8280 3561 c0 -15 -9 -21 -32 -24 -27 -4 -25 -4 7 -3 33 1 41 5 43
24 2 12 -1 22 -7 22 -6 0 -11 -9 -11 -19z"/>
<path d="M11886 3485 c-80 -70 -112 -92 -122 -85 -9 8 -18 -1 -37 -35 -14 -25
-24 -45 -23 -45 1 0 24 7 50 16 36 12 44 19 36 29 -8 9 16 35 100 106 60 52
110 97 110 101 0 12 3 14 -114 -87z"/>
<path d="M9492 3554 c-10 -11 -12 -32 -7 -80 7 -59 9 -64 24 -50 12 11 15 29
13 80 -4 69 -8 75 -30 50z"/>
<path d="M6010 3540 c-31 -31 -27 -94 6 -125 34 -32 72 -32 107 0 38 36 38 95
1 124 -34 27 -88 27 -114 1z m42 -17 l-5 -28 20 24 c13 16 26 22 36 18 25 -9
21 -27 -5 -27 -23 0 -22 -1 2 -13 28 -14 33 -46 10 -57 -8 -4 -26 -13 -40 -20
-22 -11 -23 -11 -13 1 8 10 9 20 3 29 -8 13 -10 12 -10 -2 0 -10 -7 -18 -16
-18 -13 0 -15 8 -12 40 2 22 0 40 -4 40 -16 0 -7 17 15 28 12 6 23 11 23 11 1
1 -1 -11 -4 -26z"/>
<path d="M6080 3465 c0 -9 5 -15 11 -13 6 2 11 8 11 13 0 5 -5 11 -11 13 -6 2
-11 -4 -11 -13z"/>
<path d="M9420 3485 c-9 -11 -10 -34 -5 -81 6 -58 8 -63 21 -47 15 20 20 143
5 143 -5 0 -14 -7 -21 -15z"/>
<path d="M9762 3488 c-14 -14 -17 -138 -3 -138 22 0 32 32 29 89 -3 63 -6 69
-26 49z"/>
<path d="M9693 3429 c-14 -14 -18 -139 -5 -139 28 0 41 67 24 128 -6 18 -9 21
-19 11z"/>
<path d="M9282 3358 c-13 -13 -17 -138 -4 -138 21 0 32 29 32 87 0 63 -6 73
-28 51z"/>
<path d="M9620 3360 c-11 -7 -14 -24 -12 -72 2 -35 6 -65 8 -67 10 -11 34 32
33 61 -2 61 -12 88 -29 78z"/>
<path d="M9530 3350 c-9 -6 -10 -10 -3 -10 6 0 15 5 18 10 8 12 4 12 -15 0z"/>
<path d="M11920 3263 c-41 -35 -82 -71 -90 -80 -29 -31 12 -2 85 60 90 76 89
76 84 81 -2 2 -38 -25 -79 -61z"/>
<path d="M4458 3287 l-16 -32 38 0 38 0 -16 32 c-9 18 -19 33 -22 33 -3 0 -13
-15 -22 -33z"/>
<path d="M4531 3302 c-13 -25 5 -52 34 -52 14 0 25 4 25 10 0 5 -10 9 -22 7
-17 -1 -23 3 -23 18 0 15 6 19 23 18 12 -2 22 2 22 7 0 17 -49 11 -59 -8z"/>
<path d="M4626 3311 c-3 -4 -10 -19 -15 -33 -9 -23 -7 -24 25 -24 19 1 34 1
34 2 0 1 -5 15 -11 33 -11 31 -23 39 -33 22z"/>
<path d="M4690 3284 c0 -32 2 -35 26 -32 56 6 53 68 -2 68 -21 0 -24 -5 -24
-36z m48 -3 c-4 -20 -33 -21 -34 -1 -1 23 5 30 22 23 8 -3 14 -13 12 -22z"/>
<path d="M4770 3285 c0 -33 2 -35 33 -34 23 1 26 3 10 6 -13 2 -23 8 -23 13 0
5 10 11 23 13 l22 4 -22 2 c-13 0 -23 5 -23 10 0 5 10 12 23 14 16 3 13 5 -10
6 -31 1 -33 -1 -33 -34z"/>
<path d="M4840 3285 c0 -19 5 -35 10 -35 6 0 10 10 10 23 0 18 2 19 10 7 9
-13 11 -13 20 0 8 12 10 11 10 -7 0 -13 5 -23 10 -23 6 0 10 16 10 35 0 37 -8
43 -28 23 -9 -9 -15 -9 -24 0 -20 20 -28 14 -28 -23z"/>
<path d="M4947 3287 l17 -33 16 30 c18 35 17 44 -4 27 -10 -8 -16 -9 -21 -1
-16 26 -23 6 -8 -23z"/>
<path d="M5047 3313 c-14 -13 -6 -32 16 -39 l22 -8 -25 -6 c-22 -6 -23 -8 -7
-15 10 -4 24 -2 33 6 14 12 14 15 -6 31 -18 15 -19 18 -6 18 10 0 14 5 11 10
-7 11 -28 13 -38 3z"/>
<path d="M5110 3307 c9 -7 14 -20 12 -31 -2 -10 1 -23 7 -29 8 -8 11 -2 11 21
0 18 5 32 10 32 6 0 10 5 10 10 0 6 -15 10 -32 10 -28 -1 -31 -3 -18 -13z"/>
<path d="M5181 3278 c1 -24 3 -35 6 -25 6 21 19 22 27 2 9 -25 21 -17 22 18 2
33 -9 47 -38 47 -15 0 -18 -8 -17 -42z m39 12 c0 -5 -7 -10 -15 -10 -8 0 -15
5 -15 10 0 6 7 10 15 10 8 0 15 -4 15 -10z"/>
<path d="M5254 3306 c-12 -32 0 -61 29 -64 15 -2 27 1 27 7 0 6 -10 12 -22 12
-17 1 -19 2 -5 6 9 2 17 8 17 13 0 5 -8 11 -17 13 -14 4 -12 5 5 6 12 0 22 6
22 11 0 16 -50 12 -56 -4z"/>
<path d="M5330 3280 c0 -36 3 -40 25 -40 31 0 33 17 3 23 l-23 4 23 2 c12 0
22 5 22 10 0 5 -10 12 -22 14 l-23 4 23 2 c30 2 28 21 -3 21 -22 0 -25 -4 -25
-40z"/>
<path d="M5390 3310 c0 -5 5 -10 10 -10 6 0 10 -13 10 -30 0 -16 5 -30 10 -30
6 0 10 14 10 30 0 17 5 30 10 30 6 0 10 5 10 10 0 6 -13 10 -30 10 -16 0 -30
-4 -30 -10z"/>
<path d="M9939 3294 c-5 -15 -11 -30 -13 -33 -3 -4 13 -6 34 -6 l38 0 -16 32
c-19 40 -29 41 -43 7z"/>
<path d="M10010 3305 c-18 -22 -3 -55 26 -55 13 0 24 4 24 9 0 5 -8 8 -17 7
-12 -1 -18 6 -18 19 0 13 6 20 18 19 9 -1 17 2 17 7 0 14 -36 10 -50 -6z"/>
<path d="M10095 3290 c-8 -16 -15 -31 -15 -33 0 -3 70 -4 70 -1 0 12 -24 64
-31 64 -5 0 -15 -13 -24 -30z"/>
<path d="M10164 3295 c-8 -32 6 -48 37 -43 19 2 24 9 24 33 0 25 -4 31 -27 33
-22 3 -29 -2 -34 -23z m45 2 c8 -10 7 -17 -1 -25 -19 -19 -28 -14 -28 13 0 27
12 32 29 12z"/>
<path d="M10250 3285 c0 -33 2 -35 33 -34 23 1 26 3 10 6 -27 5 -30 20 -5 26
16 4 16 5 0 6 -26 2 -22 19 5 24 16 3 13 5 -10 6 -31 1 -33 -1 -33 -34z"/>
<path d="M10320 3285 c0 -19 5 -35 10 -35 6 0 10 10 10 23 0 18 2 19 10 7 9
-13 11 -13 20 0 8 12 10 11 10 -7 0 -13 5 -23 10 -23 6 0 10 16 10 35 0 37 -8
43 -28 23 -9 -9 -15 -9 -24 0 -20 20 -28 14 -28 -23z"/>
<path d="M10424 3291 c9 -16 12 -31 9 -35 -4 -3 -2 -6 3 -6 5 1 16 16 25 35
16 35 13 45 -8 24 -8 -8 -13 -8 -17 0 -16 25 -25 9 -12 -18z"/>
<path d="M10527 3313 c-14 -13 -6 -32 16 -39 l22 -8 -25 -6 c-22 -6 -23 -8 -7
-15 10 -4 24 -2 33 6 14 12 14 15 -6 31 -18 15 -19 18 -6 18 10 0 14 5 11 10
-7 11 -28 13 -38 3z"/>
<path d="M10580 3310 c0 -5 5 -10 10 -10 6 0 10 -11 10 -24 0 -14 5 -28 10
-31 6 -4 10 7 10 24 0 17 5 31 10 31 6 0 10 5 10 10 0 6 -13 10 -30 10 -16 0
-30 -4 -30 -10z"/>
<path d="M10661 3278 c1 -24 3 -35 6 -25 6 21 19 22 27 2 9 -24 21 -17 21 13
0 35 -12 52 -36 52 -16 0 -19 -7 -18 -42z m39 12 c0 -5 -7 -10 -15 -10 -8 0
-15 5 -15 10 0 6 7 10 15 10 8 0 15 -4 15 -10z"/>
<path d="M10734 3306 c-12 -32 0 -61 29 -64 15 -2 27 1 27 7 0 6 -10 12 -22
12 -17 1 -19 2 -5 6 9 2 17 8 17 13 0 5 -8 11 -17 13 -14 4 -12 5 5 6 12 0 22
6 22 11 0 16 -50 12 -56 -4z"/>
<path d="M10804 3306 c-12 -32 0 -61 29 -64 15 -2 27 1 27 7 0 6 -10 12 -22
12 -17 1 -19 2 -5 6 9 2 17 8 17 13 0 5 -8 11 -17 13 -14 4 -12 5 5 6 12 0 22
6 22 11 0 16 -50 12 -56 -4z"/>
<path d="M10870 3310 c0 -5 5 -10 10 -10 6 0 10 -13 10 -30 0 -16 5 -30 10
-30 6 0 10 14 10 30 0 17 5 30 10 30 6 0 10 5 10 10 0 6 -13 10 -30 10 -16 0
-30 -4 -30 -10z"/>
<path d="M9212 3298 c-14 -14 -17 -138 -3 -138 22 0 32 32 29 89 -3 63 -6 69
-26 49z"/>
<path d="M9549 3294 c-11 -14 -14 -34 -11 -76 4 -60 11 -69 32 -43 8 10 9 31
3 76 -7 57 -9 60 -24 43z"/>
<path d="M9479 3234 c-14 -15 -16 -31 -10 -83 6 -61 7 -62 23 -44 14 15 16 30
10 82 -7 60 -8 62 -23 45z"/>
<path d="M9143 3233 c-14 -5 -19 -143 -5 -143 20 0 32 28 31 70 -1 54 -10 78
-26 73z"/>
<path d="M1039 3169 c-28 -10 -49 -46 -49 -82 0 -55 63 -90 119 -67 67 27 65
126 -2 150 -34 12 -33 12 -68 -1z m89 -24 c4 -5 2 -5 -4 -2 -12 7 -29 -20 -24
-38 1 -5 4 -22 5 -36 1 -24 -1 -25 -28 -20 -17 4 -32 12 -35 20 -3 9 2 11 17
6 12 -4 21 -2 21 4 0 6 -7 11 -15 11 -13 0 -14 4 -4 21 10 20 9 21 -10 16 -11
-3 -24 0 -28 5 -4 7 -1 8 7 3 9 -6 12 -4 8 6 -4 11 4 14 39 13 24 -1 47 -5 51
-9z"/>
<path d="M9073 3169 c-14 -14 -18 -139 -5 -139 28 0 41 67 24 128 -6 18 -9 21
-19 11z"/>
<path d="M9401 3166 c-7 -8 -9 -35 -5 -75 7 -59 8 -61 24 -44 12 14 15 32 12
76 -4 58 -11 68 -31 43z"/>
<path d="M5779 3101 c37 -58 80 -167 82 -210 0 -10 3 -11 6 -4 13 33 -66 221
-109 260 -11 10 -2 -11 21 -46z"/>
<path d="M5851 3155 c0 -5 11 -23 25 -40 14 -16 21 -21 16 -10 -16 30 -41 61
-41 50z"/>
<path d="M5960 3138 c-29 -44 -32 -53 -6 -23 22 26 32 45 23 45 -1 0 -9 -10
-17 -22z"/>
<path d="M6061 3151 c-8 -5 -19 -8 -25 -7 -6 2 -7 1 -3 -2 4 -2 -4 -19 -18
-38 -30 -40 -75 -133 -74 -154 0 -8 6 1 14 21 22 62 45 100 87 145 41 44 45
51 19 35z"/>
<path d="M8798 3111 c-3 -28 -12 -61 -21 -74 -18 -28 -501 -458 -534 -475 -12
-7 -33 -12 -47 -12 -22 0 -26 -4 -26 -30 0 -20 -5 -30 -15 -30 -9 0 -15 -9
-15 -24 0 -32 -107 -117 -121 -95 -5 8 -9 22 -9 32 0 14 -9 17 -53 17 -30 0
-109 3 -175 7 l-122 6 0 -28 c0 -31 -24 -54 -57 -55 -21 0 -22 -5 -25 -97 l-3
-98 -160 3 c-215 5 -210 1 -209 151 l1 112 -91 -3 -90 -3 -118 -160 c-64 -88
-116 -163 -115 -167 1 -5 31 -25 67 -46 63 -36 65 -39 68 -80 3 -38 -2 -51
-37 -97 l-41 -54 47 -28 c73 -42 77 -53 36 -105 -16 -19 -37 -47 -48 -63 -48
-67 -78 -95 -101 -95 -18 0 -83 -51 -227 -179 -301 -266 -298 -260 -304 -450
-4 -137 -9 -151 -71 -188 l-37 -23 100 -1 c55 0 113 -3 129 -5 l30 -5 -32 32
c-21 22 -35 49 -42 84 -13 63 -16 171 -5 205 9 29 294 330 313 330 14 0 16
-33 4 -58 -5 -10 -4 -26 3 -39 11 -22 16 -19 151 94 76 64 175 149 219 190 44
40 87 73 96 73 28 0 59 -43 59 -84 0 -21 4 -36 8 -34 5 2 146 125 315 273
l306 270 -5 36 -5 36 47 7 c26 3 60 6 76 6 24 0 60 26 176 127 428 371 789
698 806 731 15 29 19 62 17 155 l-1 57 -54 0 -53 0 -5 -49z"/>
<path d="M5490 3100 c-13 -13 -20 -33 -20 -60 0 -51 27 -80 74 -80 48 0 65 8
80 39 14 27 11 77 -5 87 -12 7 -6 -39 6 -49 6 -6 6 -10 -3 -14 -6 -2 -10 -8
-7 -13 3 -4 -4 -10 -14 -13 -14 -3 -18 -1 -14 9 3 9 -2 14 -16 14 -12 0 -21
-4 -21 -10 0 -5 -16 -10 -35 -10 -41 0 -44 8 -10 40 28 26 25 41 -8 32 -19 -5
-20 -3 -9 10 7 9 23 18 35 20 18 3 22 -1 24 -21 1 -14 -6 -34 -14 -43 -15 -16
-15 -18 0 -18 10 0 17 6 17 13 0 7 13 27 29 44 23 25 26 33 14 37 -32 13 -83
6 -103 -14z"/>
<path d="M9337 3102 c-16 -17 -17 -30 -12 -76 12 -95 44 -61 35 38 -5 57 -5
58 -23 38z"/>
<path d="M9266 3041 c-16 -18 -18 -28 -10 -82 8 -57 10 -60 24 -43 11 14 14
35 10 83 -5 63 -5 63 -24 42z"/>
<path d="M3221 3013 c-33 -27 -38 -82 -11 -116 18 -22 29 -27 65 -27 36 0 47
5 65 27 43 55 5 133 -65 133 -18 0 -42 -8 -54 -17z m89 -18 c0 -22 -39 -95
-50 -95 -13 0 -12 10 5 40 19 34 18 40 -5 40 -11 0 -20 7 -20 15 0 10 11 15
35 15 25 0 35 -4 35 -15z m-55 -35 c3 -6 -1 -7 -9 -4 -18 7 -21 14 -7 14 6 0
13 -4 16 -10z m82 -37 c0 -10 -4 -10 -16 -1 -9 7 -18 13 -20 15 -2 1 5 1 16 0
11 0 20 -7 20 -14z"/>
<path d="M4265 3005 c-11 -9 -14 -13 -7 -10 7 4 23 -1 34 -12 17 -14 20 -15
16 -2 -5 12 0 15 24 14 33 -2 48 -18 48 -52 0 -21 -24 -53 -40 -53 -14 0 -40
30 -40 46 0 14 -2 14 -15 0 -19 -18 -19 -27 -1 -20 16 6 29 -33 14 -43 -6 -3
-8 -1 -5 4 4 7 -7 12 -28 15 l-35 4 22 -23 c69 -74 185 38 121 116 -24 29 -82
38 -108 16z"/>
<path d="M4226 2952 c-5 -18 -5 -36 -2 -39 7 -8 34 15 48 40 9 17 8 19 -10 15
-12 -3 -23 -1 -25 6 -2 6 -7 -4 -11 -22z"/>
<path d="M4323 2954 c-8 -21 13 -42 28 -27 13 13 5 43 -11 43 -6 0 -13 -7 -17
-16z"/>
<path d="M5933 2875 c0 -33 2 -45 4 -27 2 18 2 45 0 60 -2 15 -4 0 -4 -33z"/>
<path d="M6381 2884 c-45 -57 -11 -134 59 -134 55 0 85 27 85 80 0 53 -30 80
-85 80 -30 0 -43 -6 -59 -26z m63 5 c-4 -7 0 -9 14 -5 18 6 20 2 24 -52 l3
-58 -42 1 c-46 1 -56 7 -59 31 -1 9 1 13 4 9 4 -4 7 -11 7 -16 0 -5 4 -10 10
-11 5 -2 10 14 11 35 1 20 -2 37 -7 37 -17 0 -9 17 14 28 29 14 29 14 21 1z"/>
<path d="M6440 2820 c0 -22 5 -40 10 -40 6 0 10 18 10 40 0 22 -4 40 -10 40
-5 0 -10 -18 -10 -40z"/>
<path d="M7816 2869 c-19 -15 -26 -30 -26 -54 0 -47 8 -64 42 -81 59 -30 117
4 120 71 3 71 -78 110 -136 64z m95 -6 c13 -16 12 -17 -3 -4 -17 12 -18 9 -18
-44 0 -41 -3 -55 -12 -52 -7 2 -13 20 -13 40 0 21 -3 37 -7 37 -19 0 -6 29 15
33 12 2 23 5 23 6 1 0 8 -7 15 -16z m-71 3 c0 -2 -8 -10 -17 -17 -16 -13 -17
-12 -4 4 13 16 21 21 21 13z"/>
<path d="M5873 2835 c0 -22 2 -30 4 -17 2 12 2 30 0 40 -3 9 -5 -1 -4 -23z"/>
<path d="M5931 2774 c0 -11 3 -14 6 -6 3 7 2 16 -1 19 -3 4 -6 -2 -5 -13z"/>
<path d="M5932 2725 c0 -16 2 -22 5 -12 2 9 2 23 0 30 -3 6 -5 -1 -5 -18z"/>
<path d="M2331 2697 c2 -1 13 -9 24 -17 19 -14 19 -14 6 3 -7 9 -18 17 -24 17
-6 0 -8 -1 -6 -3z"/>
<path d="M8715 2680 c-3 -6 1 -7 9 -4 18 7 21 14 7 14 -6 0 -13 -4 -16 -10z"/>
<path d="M4008 2663 c7 -3 16 -2 19 1 4 3 -2 6 -13 5 -11 0 -14 -3 -6 -6z"/>
<path d="M2198 2633 c7 -3 16 -2 19 1 4 3 -2 6 -13 5 -11 0 -14 -3 -6 -6z"/>
<path d="M5926 2505 c-3 -9 -5 -65 -4 -123 l2 -107 5 120 c6 131 6 134 -3 110z"/>
<path d="M3890 2444 c-13 -23 -15 -24 -21 -7 -7 16 -8 15 -8 -4 -1 -29 29 -31
36 -3 3 11 9 20 14 20 5 0 9 5 9 10 0 19 -17 10 -30 -16z"/>
<path d="M390 2435 c0 -22 4 -25 40 -25 36 0 40 3 40 25 0 31 -20 33 -21 3 -1
-22 -1 -22 -9 2 l-7 25 -11 -25 c-10 -24 -11 -24 -11 -2 -1 30 -21 28 -21 -3z"/>
<path d="M10266 2385 c-178 -77 -187 -80 -195 -67 -3 6 -23 -5 -46 -25 l-40
-34 53 2 c41 2 52 6 52 19 0 12 44 36 156 84 86 37 157 66 159 64 2 -2 -24
-76 -58 -166 -43 -115 -64 -161 -74 -158 -10 4 -13 -7 -13 -45 l0 -50 32 36
c24 28 28 39 18 45 -13 8 9 74 101 313 10 26 15 47 11 47 -4 0 -74 -30 -156
-65z"/>
<path d="M5872 1968 l-2 -468 -132 -2 c-73 -1 -116 -3 -96 -5 34 -4 37 -7 41
-41 l4 -37 1 38 c1 25 7 37 16 37 10 0 16 -13 19 -37 l4 -38 1 38 c1 24 7 37
16 37 10 0 13 -10 10 -35 -1 -19 1 -35 7 -35 5 0 9 16 9 35 0 19 4 35 9 35 13
0 23 -34 15 -54 -3 -9 -2 -16 4 -16 5 0 13 15 16 34 5 28 12 35 34 38 l27 3 3
238 2 237 30 0 c17 0 30 4 30 8 0 5 -13 7 -30 4 -29 -4 -30 -3 -30 38 0 41 1
42 30 38 17 -3 30 -1 30 4 0 4 -13 8 -30 8 l-30 0 -3 183 c-1 100 -3 -28 -5
-285z"/>
<path d="M2247 2409 c-9 -5 -24 -26 -32 -46 -14 -34 -14 -37 10 -68 42 -56
111 -53 144 6 39 71 -49 150 -122 108z m45 -36 c-2 -16 -11 -36 -20 -45 -14
-16 -14 -18 0 -18 17 0 32 26 29 51 -1 9 5 22 14 29 21 17 40 -2 48 -47 8 -41
-5 -50 -75 -52 -63 -1 -74 11 -38 44 11 10 20 22 20 27 0 5 -9 6 -20 3 -11 -3
-20 -2 -20 3 0 17 27 32 45 25 14 -5 16 -3 10 7 -5 8 -4 11 2 7 6 -4 8 -19 5
-34z"/>
<path d="M2325 2360 c3 -5 8 -10 11 -10 2 0 4 5 4 10 0 6 -5 10 -11 10 -5 0
-7 -4 -4 -10z"/>
<path d="M2320 2320 c0 -5 5 -10 10 -10 6 0 10 5 10 10 0 6 -4 10 -10 10 -5 0
-10 -4 -10 -10z"/>
<path d="M3906 2395 c-3 -8 -1 -15 4 -15 6 0 10 7 10 15 0 8 -2 15 -4 15 -2 0
-6 -7 -10 -15z"/>
<path d="M399 2374 c-17 -20 -1 -48 31 -52 30 -5 44 11 36 42 -7 30 -45 36
-67 10z m50 -8 c9 -10 8 -16 -4 -26 -19 -16 -41 1 -32 24 8 20 21 20 36 2z"/>
<path d="M3865 2360 c-3 -5 1 -10 10 -10 9 0 13 5 10 10 -3 6 -8 10 -10 10 -2
0 -7 -4 -10 -10z"/>
<path d="M395 2280 c-9 -29 2 -40 41 -40 34 0 50 20 17 20 -17 1 -17 1 0 14
24 19 22 23 -17 24 -27 1 -36 -3 -41 -18z m35 -5 c0 -8 -4 -15 -10 -15 -5 0
-10 7 -10 15 0 8 5 15 10 15 6 0 10 -7 10 -15z"/>
<path d="M3928 2253 c7 -3 16 -2 19 1 4 3 -2 6 -13 5 -11 0 -14 -3 -6 -6z"/>
<path d="M408 2213 c12 -2 22 -7 22 -10 0 -2 -10 -13 -22 -24 l-23 -18 45 1
c25 0 34 3 22 5 l-24 5 23 24 22 24 -44 -1 c-24 -1 -34 -4 -21 -6z"/>
<path d="M3661 2183 c-22 -18 -41 -93 -24 -93 17 0 55 48 48 60 -6 9 -10 9
-16 -1 -10 -17 -23 -5 -16 16 8 20 46 19 54 -1 5 -12 7 -13 14 -3 5 8 3 17 -4
22 -12 7 40 -2 56 -10 13 -8 7 -25 -8 -20 -8 4 -17 1 -21 -5 -4 -6 -3 -8 3 -5
18 11 46 -18 39 -40 -13 -41 -58 -36 -75 8 -5 14 -8 15 -19 3 -10 -11 -10 -14
0 -14 7 0 18 -8 25 -18 10 -17 8 -18 -34 -12 -44 7 -44 7 -25 -12 13 -13 33
-20 58 -20 74 0 111 86 59 137 -29 30 -83 33 -114 8z"/>
<path d="M399 2124 c-17 -21 0 -48 33 -52 28 -3 42 18 33 49 -8 23 -48 25 -66
3z m50 -8 c9 -10 8 -16 -4 -26 -19 -16 -41 1 -32 24 8 20 21 20 36 2z"/>
<path d="M6238 2122 c-38 -23 -48 -74 -21 -110 16 -21 30 -28 66 -30 58 -4 87
21 87 73 0 71 -70 106 -132 67z m97 -13 c4 -5 2 -16 -5 -24 -6 -8 -7 -16 -2
-19 5 -3 12 -16 14 -29 5 -24 8 -23 -82 -31 -24 -2 -25 1 -25 49 0 27 4 53 8
56 14 10 86 9 92 -2z"/>
<path d="M6270 2071 c0 -20 6 -30 20 -34 11 -3 23 -1 26 4 3 5 -2 9 -12 9 -11
0 -15 6 -11 19 3 12 -1 22 -9 25 -10 4 -14 -3 -14 -23z"/>
<path d="M3740 2110 c0 -5 5 -10 10 -10 6 0 10 5 10 10 0 6 -4 10 -10 10 -5 0
-10 -4 -10 -10z"/>
<path d="M610 2089 c0 -5 11 -9 25 -9 14 0 25 2 25 4 0 2 -11 6 -25 8 -14 3
-25 1 -25 -3z"/>
<path d="M3958 2050 c-2 -39 1 -55 15 -67 16 -15 17 -13 17 39 0 35 -5 60 -14
67 -12 10 -15 3 -18 -39z"/>
<path d="M403 2033 c15 -16 15 -18 0 -35 -15 -17 -14 -18 28 -17 24 1 34 4 21
6 -19 4 -21 7 -11 19 8 10 8 14 0 14 -6 0 -11 4 -11 10 0 5 6 7 14 4 8 -3 17
-1 21 5 4 7 -9 11 -37 11 -40 0 -41 -1 -25 -17z"/>
<path d="M11196 2025 c-3 -8 4 -21 15 -29 21 -14 21 -14 -2 -18 -21 -4 -22 -6
-6 -12 9 -5 24 -6 32 -2 22 8 18 34 -5 41 -11 4 -18 10 -15 15 3 5 13 6 22 3
11 -4 14 -3 9 5 -10 17 -43 15 -50 -3z"/>
<path d="M11270 2020 c-13 -23 2 -60 25 -60 30 0 45 13 45 40 0 42 -51 56 -70
20z m58 -17 c5 -17 -26 -29 -40 -15 -6 6 -7 15 -3 22 9 14 37 9 43 -7z"/>
<path d="M11356 2013 c11 -50 14 -54 36 -51 19 2 23 10 25 43 1 35 1 36 -5 10
-10 -42 -42 -47 -42 -6 0 17 -5 31 -10 31 -6 0 -8 -12 -4 -27z"/>
<path d="M11442 2027 c9 -7 18 -26 21 -42 l4 -30 2 29 c0 16 9 35 19 42 15 12
12 13 -23 13 -34 0 -38 -1 -23 -12z"/>
<path d="M11510 2000 c0 -22 5 -40 10 -40 6 0 10 7 10 15 0 21 28 19 33 -2 3
-10 5 2 5 27 0 25 -2 37 -5 28 -2 -10 -13 -18 -23 -18 -13 0 -17 5 -14 15 4 8
1 15 -5 15 -6 0 -11 -17 -11 -40z"/>
<path d="M11627 2033 c-13 -13 -7 -30 16 -41 l22 -11 -22 0 c-31 -1 -29 -21 1
-21 31 0 41 27 16 42 -23 15 -27 30 -5 22 8 -4 15 -1 15 5 0 12 -32 15 -43 4z"/>
<path d="M11688 2028 c7 -7 12 -25 12 -40 0 -15 5 -28 10 -28 6 0 10 14 10 30
0 17 5 30 10 30 6 0 10 5 10 10 0 6 -14 10 -32 10 -25 0 -29 -3 -20 -12z"/>
<path d="M11760 1999 c0 -38 1 -41 13 -25 12 17 14 17 20 2 11 -28 22 -17 22
22 0 33 -3 37 -27 40 -27 3 -28 1 -28 -39z m40 11 c0 -5 -7 -10 -15 -10 -8 0
-15 5 -15 10 0 6 7 10 15 10 8 0 15 -4 15 -10z"/>
<path d="M11830 2000 c0 -38 2 -40 30 -40 35 0 41 19 8 21 -22 1 -22 1 2 9
l25 7 -25 11 c-24 10 -24 11 -2 11 34 1 26 21 -8 21 -28 0 -30 -2 -30 -40z"/>
<path d="M11910 2000 c0 -38 1 -40 32 -40 34 0 29 14 -7 23 -18 4 -18 5 3 6
12 0 22 6 22 11 0 6 -10 10 -22 11 -20 1 -19 2 5 9 16 5 35 6 43 3 8 -3 14 0
14 6 0 6 -19 11 -45 11 l-45 0 0 -40z"/>
<path d="M10980 2016 c0 -13 -25 -16 -172 -19 l-173 -3 172 -2 c137 -2 172 -5
175 -16 2 -11 11 -11 48 4 44 18 44 18 20 28 -59 22 -70 24 -70 8z"/>
<path d="M11992 1985 c0 -16 2 -22 5 -12 2 9 2 23 0 30 -3 6 -5 -1 -5 -18z"/>
<path d="M3465 1990 c3 -5 8 -10 11 -10 2 0 4 5 4 10 0 6 -5 10 -11 10 -5 0
-7 -4 -4 -10z"/>
<path d="M3520 1990 c0 -5 5 -10 10 -10 6 0 10 5 10 10 0 6 -4 10 -10 10 -5 0
-10 -4 -10 -10z"/>
<path d="M3580 1990 c0 -5 5 -10 10 -10 6 0 10 5 10 10 0 6 -4 10 -10 10 -5 0
-10 -4 -10 -10z"/>
<path d="M3645 1990 c-3 -5 1 -10 10 -10 9 0 13 5 10 10 -3 6 -8 10 -10 10 -2
0 -7 -4 -10 -10z"/>
<path d="M3710 1990 c0 -5 5 -10 10 -10 6 0 10 5 10 10 0 6 -4 10 -10 10 -5 0
-10 -4 -10 -10z"/>
<path d="M3770 1990 c0 -5 5 -10 10 -10 6 0 10 5 10 10 0 6 -4 10 -10 10 -5 0
-10 -4 -10 -10z"/>
<path d="M3580 1960 c0 -5 5 -10 10 -10 6 0 10 5 10 10 0 6 -4 10 -10 10 -5 0
-10 -4 -10 -10z"/>
<path d="M3715 1961 c-3 -5 -1 -12 5 -16 5 -3 10 1 10 9 0 18 -6 21 -15 7z"/>
<path d="M3770 1950 c0 -5 5 -10 10 -10 6 0 10 5 10 10 0 6 -4 10 -10 10 -5 0
-10 -4 -10 -10z"/>
<path d="M658 1903 c7 -3 16 -2 19 1 4 3 -2 6 -13 5 -11 0 -14 -3 -6 -6z"/>
<path d="M658 1873 c7 -3 16 -2 19 1 4 3 -2 6 -13 5 -11 0 -14 -3 -6 -6z"/>
<path d="M5934 1680 c0 -96 2 -136 3 -87 2 48 2 126 0 175 -1 48 -3 8 -3 -88z"/>
<path d="M6521 1824 c-43 -55 -11 -134 54 -134 47 0 64 8 81 42 31 61 -6 118
-77 118 -29 0 -43 -6 -58 -26z m101 -19 c9 -19 8 -29 -6 -50 -18 -28 -53 -33
-62 -10 -4 8 -11 12 -17 8 -6 -3 -7 -1 -3 5 5 9 13 9 28 1 13 -7 23 -8 30 -1
7 7 4 10 -7 9 -22 -2 -40 25 -32 47 10 26 55 20 69 -9z"/>
<path d="M6572 1799 c2 -6 8 -10 13 -10 5 0 11 4 13 10 2 6 -4 11 -13 11 -9 0
-15 -5 -13 -11z"/>
<path d="M9680 1763 c0 -14 -29 -29 -117 -61 -148 -56 -207 -81 -201 -87 2 -3
38 9 79 27 171 72 248 96 253 81 5 -11 13 -8 41 13 20 15 34 28 33 29 -2 1
-22 5 -45 9 -37 5 -43 4 -43 -11z"/>
<path d="M2564 1760 c-55 -22 -70 -95 -29 -135 45 -46 127 -26 140 33 8 40 -9
78 -44 97 -34 17 -37 17 -67 5z m1 -20 c-3 -5 -12 -10 -18 -10 -7 0 -6 4 3 10
19 12 23 12 15 0z m83 -15 c4 -5 1 -5 -5 -1 -7 4 -13 2 -13 -3 0 -6 -12 -11
-27 -12 l-28 -1 25 -7 c29 -8 38 -42 16 -60 -21 -17 -43 -8 -58 23 -17 38 12
77 52 73 17 -2 33 -7 38 -12z m-101 -80 c0 -8 -4 -12 -9 -9 -5 3 -6 10 -3 15
9 13 12 11 12 -6z"/>
<path d="M2580 1670 c0 -5 7 -10 15 -10 8 0 15 5 15 10 0 6 -7 10 -15 10 -8 0
-15 -4 -15 -10z"/>
<path d="M6108 1753 c7 -3 16 -2 19 1 4 3 -2 6 -13 5 -11 0 -14 -3 -6 -6z"/>
<path d="M4005 1721 c-3 -5 -1 -12 5 -16 5 -3 10 1 10 9 0 18 -6 21 -15 7z"/>
<path d="M674 1674 c-18 -14 -18 -15 4 -4 12 6 22 13 22 15 0 8 -5 6 -26 -11z"/>
<path d="M1475 1678 c-51 -30 -61 -93 -20 -133 26 -27 57 -31 101 -15 37 15
26 21 -39 21 -38 1 -60 6 -69 17 -11 13 -10 14 15 8 16 -4 27 -2 27 4 0 5 -7
10 -15 10 -18 0 -19 12 -3 28 9 9 8 12 -5 12 -31 0 -17 18 17 22 26 3 32 0 28
-10 -4 -12 -1 -12 15 -1 42 26 71 -14 38 -51 -14 -16 -14 -18 4 -23 37 -9 36
70 -1 101 -22 18 -71 24 -93 10z"/>
<path d="M6690 1669 c0 -5 5 -7 10 -4 6 3 10 8 10 11 0 2 -4 4 -10 4 -5 0 -10
-5 -10 -11z"/>
<path d="M4011 1644 c0 -11 3 -14 6 -6 3 7 2 16 -1 19 -3 4 -6 -2 -5 -13z"/>
<path d="M6690 1629 c0 -5 5 -7 10 -4 6 3 10 8 10 11 0 2 -4 4 -10 4 -5 0 -10
-5 -10 -11z"/>
<path d="M1496 1620 c-2 -3 3 -15 9 -27 l12 -23 23 25 c13 14 22 25 19 26 -21
4 -61 4 -63 -1z"/>
<path d="M4012 1570 c0 -14 2 -19 5 -12 2 6 2 18 0 25 -3 6 -5 1 -5 -13z"/>
<path d="M6615 1570 c-3 -5 -1 -10 4 -10 6 0 11 5 11 10 0 6 -2 10 -4 10 -3 0
-8 -4 -11 -10z"/>
<path d="M2835 1550 c-3 -6 1 -7 9 -4 18 7 21 14 7 14 -6 0 -13 -4 -16 -10z"/>
<path d="M938 1543 c-9 -2 -24 -20 -33 -39 -20 -43 -11 -79 28 -108 22 -16 33
-18 64 -10 20 5 39 15 41 23 3 9 0 11 -9 6 -8 -5 -11 -4 -6 1 5 5 14 9 20 9 7
0 13 17 15 37 5 64 -48 100 -120 81z m24 -25 c-5 -22 -5 -22 12 -5 21 21 30
21 50 1 22 -21 20 -57 -4 -79 -20 -18 -50 -15 -50 6 0 6 7 9 15 6 8 -4 17 -2
20 3 4 6 -3 10 -14 10 -10 0 -22 6 -25 13 -3 6 -5 -4 -3 -23 2 -29 -1 -35 -18
-35 -17 0 -20 6 -20 52 0 51 3 56 42 72 0 1 -2 -9 -5 -21z"/>
<path d="M980 1490 c0 -5 7 -10 15 -10 8 0 15 5 15 10 0 6 -7 10 -15 10 -8 0
-15 -4 -15 -10z"/>
<path d="M5604 1412 c7 -12 66 -14 66 -2 0 5 -16 10 -36 10 -19 0 -33 -4 -30
-8z"/>
<path d="M5920 1371 c0 -25 -5 -30 -27 -34 l-28 -4 28 -2 c19 -1 27 -6 27 -20
0 -14 -6 -17 -25 -13 -15 2 -25 0 -25 -7 0 -6 11 -11 24 -11 13 0 27 -6 29
-12 3 -7 6 20 6 60 1 39 -1 72 -4 72 -3 0 -5 -13 -5 -29z"/>
<path d="M5075 1365 c-48 -47 -25 -125 40 -141 49 -12 105 30 105 81 0 72 -94
112 -145 60z m36 -42 l-3 -48 26 24 c31 29 34 45 6 36 -23 -7 -27 7 -6 24 16
13 42 6 50 -14 3 -8 -4 -25 -15 -39 l-20 -26 20 0 c12 0 21 -4 21 -10 0 -5
-22 -10 -50 -10 l-50 0 0 41 c0 24 -4 38 -10 34 -5 -3 -10 -2 -10 4 0 9 27 30
40 31 3 0 4 -21 1 -47z"/>
<path d="M5600 1372 c0 -9 58 -7 67 2 4 3 -10 6 -30 6 -20 0 -37 -4 -37 -8z"/>
<path d="M5600 1338 c0 -4 14 -8 30 -8 17 0 30 2 30 4 0 2 -13 6 -30 8 -16 3
-30 1 -30 -4z"/>
<path d="M8615 1300 c-17 -18 -16 -20 7 -48 24 -29 24 -29 48 -10 12 10 20 21
16 25 -3 4 -12 1 -18 -5 -7 -7 -16 -12 -22 -12 -6 0 -5 5 2 12 17 17 15 33 -3
18 -9 -7 -18 -10 -22 -6 -4 3 2 12 12 20 11 8 14 15 8 19 -6 4 -18 -2 -28 -13z"/>
<path d="M5600 1298 c0 -4 14 -8 30 -8 17 0 30 2 30 4 0 2 -13 6 -30 8 -16 3
-30 1 -30 -4z"/>
<path d="M3846 1283 c-12 -13 -6 -33 12 -32 12 0 13 2 3 6 -10 4 -10 7 -1 13
7 4 8 10 2 13 -5 4 -12 4 -16 0z"/>
<path d="M5601 1264 c0 -11 3 -14 6 -6 3 7 2 16 -1 19 -3 4 -6 -2 -5 -13z"/>
<path d="M3890 1260 c0 -5 5 -10 10 -10 6 0 10 5 10 10 0 6 -4 10 -10 10 -5 0
-10 -4 -10 -10z"/>
<path d="M8580 1259 c0 -6 5 -20 11 -31 12 -22 14 -22 -36 -2 -26 11 -16 -12
10 -24 27 -13 55 -16 55 -7 0 3 -7 21 -14 40 -15 35 -26 45 -26 24z"/>
<path d="M5883 1243 c18 -3 27 -10 27 -22 0 -14 -6 -17 -25 -13 -35 6 -31 -4
5 -17 30 -10 30 -9 30 25 0 32 -2 34 -32 33 -31 -2 -31 -2 -5 -6z"/>
<path d="M9326 1200 c-21 -24 -24 -34 -16 -50 15 -27 12 -32 -9 -20 -24 12
-31 13 -31 1 0 -11 69 -36 76 -28 3 3 -2 19 -11 37 -21 41 -12 50 20 20 l24
-23 20 24 c24 30 18 39 -9 14 -21 -19 -29 -8 -8 13 6 6 8 15 4 19 -4 4 -12 0
-17 -10 -6 -9 -15 -15 -20 -11 -6 4 -4 13 7 25 9 10 13 19 7 19 -5 0 -22 -14
-37 -30z"/>
<path d="M3388 1213 c7 -3 16 -2 19 1 4 3 -2 6 -13 5 -11 0 -14 -3 -6 -6z"/>
<path d="M3421 1168 c1 -55 5 -50 11 15 2 20 0 37 -4 37 -4 0 -7 -24 -7 -52z"/>
<path d="M3460 1168 c0 -28 2 -49 4 -47 8 9 13 99 5 99 -5 0 -9 -23 -9 -52z"/>
<path d="M3620 1165 c4 -50 5 -50 8 -10 2 22 7 44 12 50 6 7 3 11 -8 11 -14 0
-16 -8 -12 -51z"/>
<path d="M5551 1193 c1 -23 2 -24 6 -6 4 19 12 23 61 26 l57 3 -62 2 c-63 2
-63 2 -62 -25z"/>
<path d="M3501 1163 c1 -53 6 -49 11 10 2 20 0 37 -4 37 -4 0 -8 -21 -7 -47z"/>
<path d="M3540 1163 c0 -25 2 -44 4 -42 9 9 13 89 5 89 -5 0 -9 -21 -9 -47z"/>
<path d="M3581 1163 c1 -53 6 -49 11 10 2 20 0 37 -4 37 -4 0 -8 -21 -7 -47z"/>
<path d="M3662 1163 l1 -48 4 44 4 43 49 -4 c27 -3 47 -1 44 4 -3 4 -27 8 -55
8 l-49 0 2 -47z"/>
<path d="M8531 1183 c13 -16 25 -30 27 -32 1 -2 5 -1 9 2 8 8 -36 57 -50 57
-6 0 0 -12 14 -27z"/>
<path d="M3780 1139 c0 -49 4 -58 41 -99 39 -43 36 -29 -4 17 -12 13 -20 41
-22 73 -5 71 -15 76 -15 9z"/>
<path d="M4750 1160 c0 -11 5 -20 10 -20 6 0 10 9 10 20 0 11 -4 20 -10 20 -5
0 -10 -9 -10 -20z"/>
<path d="M4790 1160 c0 -11 5 -20 10 -20 6 0 10 9 10 20 0 11 -4 20 -10 20 -5
0 -10 -9 -10 -20z"/>
<path d="M8472 1168 c-18 -18 -15 -32 11 -56 25 -23 40 -21 30 5 -5 12 -1 14
15 8 13 -4 22 -2 22 4 0 6 -4 11 -9 11 -5 0 -13 9 -16 20 -7 22 -35 26 -53 8z
m36 -19 c-2 -6 -8 -10 -13 -10 -5 0 -11 4 -13 10 -2 6 4 11 13 11 9 0 15 -5
13 -11z"/>
<path d="M5855 1160 c4 -6 15 -10 27 -10 14 0 18 -5 14 -16 -3 -9 -6 -17 -6
-20 0 -2 -11 1 -25 6 -14 5 -25 6 -25 1 0 -5 11 -13 25 -18 17 -6 22 -12 16
-22 -7 -10 -13 -11 -31 -1 -12 6 -24 9 -27 6 -3 -3 6 -11 21 -17 14 -7 26 -16
26 -20 0 -15 -20 -20 -41 -9 -11 7 -23 9 -26 7 -3 -3 7 -11 21 -19 17 -9 23
-17 17 -27 -7 -11 -13 -10 -35 4 -14 10 -26 13 -26 9 0 -5 9 -15 21 -22 17
-11 18 -16 8 -28 -10 -13 -15 -12 -38 8 l-26 23 22 -26 c18 -19 20 -28 11 -37
-9 -9 -17 -7 -35 10 -13 12 -23 17 -23 11 0 -6 7 -16 15 -23 12 -10 13 -16 5
-24 -8 -8 -16 -5 -30 12 -25 31 -36 28 -15 -4 14 -22 15 -28 4 -35 -10 -6 -18
0 -27 17 -8 14 -16 24 -19 21 -2 -3 0 -14 6 -25 15 -27 14 -32 -4 -32 -9 0
-20 12 -26 26 -5 15 -12 25 -15 22 -2 -3 0 -17 5 -31 8 -20 7 -27 -5 -31 -27
-10 -34 -7 -34 18 0 14 -5 28 -11 31 -7 5 -8 -5 -4 -29 l7 -36 -46 -2 c-25 -1
-56 -2 -68 -2 -15 -1 -24 7 -29 24 -6 23 -7 23 -8 3 -1 -30 -15 -36 -61 -28
-29 5 -40 12 -43 28 -4 22 -4 22 -6 0 -1 -21 -6 -23 -60 -23 -56 0 -59 1 -53
22 3 14 2 19 -6 14 -7 -4 -12 -14 -12 -22 0 -10 -12 -14 -44 -14 -38 0 -45 3
-49 23 l-4 22 -2 -22 c-1 -20 -7 -23 -38 -23 -54 0 -81 9 -86 29 -4 14 -5 14
-6 -1 -1 -15 -11 -18 -55 -18 -44 0 -55 4 -59 18 -4 16 -5 16 -6 0 -1 -15 -11
-18 -55 -18 -49 0 -55 2 -59 23 l-4 22 -2 -22 c-1 -21 -6 -23 -51 -23 -38 0
-50 4 -50 15 0 8 -4 15 -10 15 -5 0 -10 -6 -10 -12 0 -9 -16 -12 -55 -10 -39
3 -55 8 -55 18 0 8 -5 14 -11 14 -6 0 -9 -7 -5 -15 4 -12 -5 -15 -54 -15 -53
0 -60 2 -60 20 0 11 -4 20 -10 20 -5 0 -10 -9 -10 -21 0 -19 -5 -20 -57 -17
-47 4 -57 8 -55 21 2 9 -2 17 -8 17 -5 0 -10 -8 -10 -18 0 -14 -7 -17 -44 -14
-36 3 -46 8 -49 25 -4 22 -4 22 -6 0 -1 -21 -6 -23 -56 -23 -50 0 -55 2 -56
23 l0 22 -10 -23 c-7 -20 -15 -23 -51 -20 -35 2 -43 7 -49 28 l-7 25 -1 -25
c-1 -24 -4 -25 -53 -23 l-53 2 55 -9 c30 -5 246 -13 480 -19 234 -7 592 -16
797 -21 425 -11 481 -7 588 44 114 54 202 160 220 266 6 33 5 35 -25 37 -18 1
-28 -2 -25 -7z"/>
<path d="M2512 1150 c-17 -7 -45 -55 -102 -173 -43 -90 -86 -169 -94 -176 -30
-25 -16 -31 75 -31 80 0 90 2 79 15 -18 21 -7 62 45 170 49 103 74 125 139
125 41 0 82 -37 94 -85 l8 -30 172 -3 172 -2 0 25 c0 69 44 88 173 76 77 -7
92 -12 119 -37 l31 -29 -17 27 c-21 33 -57 45 -161 52 -61 5 -87 3 -109 -9
-15 -8 -29 -15 -30 -15 -1 0 0 20 2 44 l4 43 -69 6 c-136 13 -508 17 -531 7z"/>
<path d="M3163 1133 c9 -2 25 -2 35 0 9 3 1 5 -18 5 -19 0 -27 -2 -17 -5z"/>
<path d="M5510 1126 c0 -2 11 -6 25 -8 13 -3 22 -1 19 3 -5 9 -44 13 -44 5z"/>
<path d="M8408 1104 c-15 -15 -14 -18 5 -40 11 -13 26 -24 33 -24 21 0 37 29
30 55 -7 29 -43 34 -68 9z m52 -25 c0 -23 -13 -25 -31 -3 -10 13 -10 17 1 24
18 11 30 3 30 -21z"/>
<path d="M9250 1109 c1 -14 48 -54 56 -47 2 3 -10 17 -26 33 -19 18 -30 24
-30 14z"/>
<path d="M5270 1099 c0 -5 5 -7 10 -4 6 3 10 8 10 11 0 2 -4 4 -10 4 -5 0 -10
-5 -10 -11z"/>
<path d="M4632 1065 c0 -16 2 -22 5 -12 2 9 2 23 0 30 -3 6 -5 -1 -5 -18z"/>
<path d="M9214 1069 c-17 -18 -16 -20 6 -44 26 -28 42 -33 34 -10 -4 10 0 15
15 15 12 0 21 5 21 10 0 6 -7 10 -15 10 -8 0 -15 6 -15 14 0 23 -27 26 -46 5z
m27 -22 c-13 -13 -26 -3 -16 12 3 6 11 8 17 5 6 -4 6 -10 -1 -17z"/>
<path d="M4945 1070 c3 -5 8 -10 11 -10 2 0 4 5 4 10 0 6 -5 10 -11 10 -5 0
-7 -4 -4 -10z"/>
<path d="M8350 1036 c0 -23 -3 -26 -20 -21 -28 9 -26 -16 3 -43 29 -28 46 -29
22 -2 -16 18 -16 20 -2 20 10 0 17 7 17 17 0 14 2 14 20 -2 32 -29 23 -2 -10
30 l-30 29 0 -28z"/>
<path d="M1329 1017 c5 -5 28 -7 52 -5 l44 3 -52 5 c-29 3 -48 1 -44 -3z"/>
<path d="M5285 1010 c3 -5 8 -10 11 -10 2 0 4 5 4 10 0 6 -5 10 -11 10 -5 0
-7 -4 -4 -10z"/>
<path d="M9154 999 c-19 -21 -19 -21 11 -45 l30 -24 18 21 c21 26 21 33 1 53
-21 21 -37 20 -60 -5z m52 -10 c3 -6 1 -16 -4 -21 -13 -13 -45 8 -36 23 7 12
31 11 40 -2z"/>
<path d="M4860 1000 c0 -5 5 -10 11 -10 5 0 7 5 4 10 -3 6 -8 10 -11 10 -2 0
-4 -4 -4 -10z"/>
<path d="M3686 968 c-9 -12 -16 -35 -16 -50 0 -42 -18 -34 -23 10 l-4 37 -1
-37 c-1 -26 -7 -38 -16 -38 -10 0 -16 13 -19 38 l-4 37 -1 -37 c-1 -26 -7 -38
-16 -38 -10 0 -16 13 -19 38 l-4 37 -1 -37 c-3 -55 -30 -51 -35 5 l-4 42 -1
-42 c-1 -30 -6 -43 -16 -43 -10 0 -16 14 -19 43 l-4 42 -1 -42 c-1 -31 -6 -43
-17 -43 -11 0 -15 11 -15 40 0 22 -4 40 -8 40 -5 0 -7 -14 -4 -30 2 -17 -1
-37 -8 -45 -10 -12 7 -14 119 -17 l131 -3 0 36 c0 55 46 87 80 57 12 -11 12
-10 1 5 -19 24 -57 21 -75 -5z"/>
<path d="M4598 983 c7 -3 16 -2 19 1 4 3 -2 6 -13 5 -11 0 -14 -3 -6 -6z"/>
<path d="M8293 972 c17 -18 23 -52 10 -52 -4 0 -17 10 -30 22 -32 30 -38 18
-7 -15 20 -22 29 -25 44 -17 25 13 26 42 2 63 -25 23 -39 22 -19 -1z"/>
<path d="M8220 932 c0 -5 14 -21 30 -37 35 -34 39 -26 8 15 -21 29 -38 39 -38
22z"/>
<path d="M9085 917 l-26 -22 31 -23 c25 -19 34 -21 46 -12 20 18 17 57 -5 70
-16 8 -25 5 -46 -13z m43 -10 c7 -8 7 -18 2 -27 -8 -13 -11 -13 -26 2 -9 9
-13 21 -10 27 9 15 21 14 34 -2z"/>
<path d="M8170 885 c-11 -14 -10 -20 13 -43 l27 -26 22 22 c18 18 20 26 12 40
-15 23 -57 27 -74 7z m60 -20 c0 -23 -19 -27 -37 -10 -13 14 -14 18 -3 25 17
11 40 2 40 -15z"/>
<path d="M9040 874 c0 -4 8 -13 18 -20 15 -12 14 -13 -15 -14 -41 0 -42 -12
-3 -40 29 -21 42 -16 18 8 -9 9 -6 12 13 12 38 0 41 10 10 36 -29 24 -41 29
-41 18z"/>
<path d="M8116 833 c-5 -5 13 -64 24 -76 4 -5 10 4 14 18 5 18 12 25 21 21 8
-3 17 -1 19 3 6 9 -70 42 -78 34z"/>
<path d="M8068 791 c-22 -21 -23 -35 -4 -28 8 3 22 -3 32 -14 9 -10 22 -19 27
-19 6 0 1 11 -12 23 -13 15 -19 30 -15 40 8 22 -6 21 -28 -2z"/>
<path d="M8970 789 c0 -6 5 -20 11 -31 8 -15 8 -27 -2 -44 l-12 -24 -24 22
c-33 31 -43 13 -10 -19 26 -26 27 -26 47 -8 11 10 24 32 28 49 6 21 14 30 25
28 30 -5 18 16 -14 27 -40 14 -49 14 -49 0z m40 -19 c0 -5 -4 -10 -10 -10 -5
0 -10 5 -10 10 0 6 5 10 10 10 6 0 10 -4 10 -10z"/>
<path d="M8014 735 c-9 -23 6 -37 32 -31 24 6 34 -9 12 -17 -7 -2 -10 -7 -7
-11 11 -12 42 21 36 39 -6 13 -14 15 -34 10 -23 -5 -25 -4 -14 9 11 13 11 16
-3 16 -9 0 -19 -7 -22 -15z"/>
<path d="M8886 698 c-4 -9 -5 -22 -1 -29 5 -8 1 -9 -16 -4 -22 6 -21 4 8 -26
31 -32 59 -35 33 -4 -11 13 -9 15 14 15 14 0 26 5 26 10 0 6 -11 10 -24 10
-18 0 -26 6 -29 23 -3 19 -5 20 -11 5z"/>
<path d="M3893 645 c11 -39 21 -44 35 -18 9 14 11 14 22 -7 l12 -23 14 33 c8
18 13 38 10 44 -2 6 -9 0 -14 -14 l-11 -25 -7 23 c-3 12 -10 22 -14 22 -5 0
-12 -10 -16 -22 l-7 -23 -10 23 c-16 35 -26 26 -14 -13z"/>
<path d="M4040 645 c0 -32 3 -35 28 -34 16 1 20 3 10 6 -12 3 -18 14 -18 34 0
16 -4 29 -10 29 -5 0 -10 -16 -10 -35z"/>
<path d="M4112 668 c-25 -25 -6 -68 30 -68 9 0 22 9 28 19 13 25 13 27 -6 45
-19 19 -36 20 -52 4z m46 -31 c2 -12 -3 -17 -17 -17 -15 0 -21 6 -21 21 0 25
33 22 38 -4z"/>
<path d="M4180 676 c0 -9 31 -76 35 -76 9 0 36 62 32 73 -3 7 -10 -1 -17 -18
l-12 -30 -10 28 c-5 15 -14 27 -19 27 -5 0 -9 -2 -9 -4z"/>
<path d="M9360 660 l-45 -18 30 -11 c17 -6 37 -15 46 -20 13 -8 18 -5 22 11 6
20 10 20 174 15 123 -4 143 -3 73 3 -52 4 -130 8 -174 9 -65 1 -77 4 -72 16 7
18 3 18 -54 -5z"/>
<path d="M4270 635 c0 -32 3 -35 28 -34 l27 0 -25 11 -25 11 25 6 25 7 -25 8
-25 8 25 8 25 8 -27 1 c-25 1 -28 -2 -28 -34z"/>
<path d="M4341 638 c-1 -35 1 -38 27 -37 23 0 24 1 7 8 -11 4 -23 21 -26 37
-6 27 -7 27 -8 -8z"/>
<path d="M4402 633 c2 -31 7 -39 26 -41 12 -2 22 1 22 7 0 6 -7 11 -15 11 -10
0 -15 10 -15 30 0 17 -5 30 -11 30 -6 0 -9 -16 -7 -37z"/>
<path d="M4503 655 c-3 -9 2 -22 13 -30 18 -14 18 -14 -6 -15 -21 -1 -22 -2
-8 -10 21 -13 48 -3 48 17 0 8 -9 17 -20 20 -11 3 -17 9 -15 14 3 4 13 5 22 2
11 -4 14 -3 9 5 -10 17 -36 15 -43 -3z"/>
<path d="M4564 659 c-3 -5 0 -9 5 -9 6 0 11 -13 11 -30 0 -16 5 -30 10 -30 6
0 10 14 10 30 0 17 5 30 10 30 6 0 10 4 10 9 0 5 -11 9 -25 9 -14 0 -28 -4
-31 -9z"/>
<path d="M4638 634 c-4 -34 6 -57 15 -32 3 10 8 9 22 -2 17 -13 18 -13 13 1
-4 9 -2 21 4 27 14 14 -7 42 -32 42 -13 0 -19 -10 -22 -36z m42 6 c0 -5 -7
-10 -15 -10 -8 0 -15 5 -15 10 0 6 7 10 15 10 8 0 15 -4 15 -10z"/>
<path d="M4710 630 c0 -36 3 -40 25 -40 31 0 33 20 3 21 -22 1 -22 1 2 8 24 7
24 7 5 19 -19 11 -19 11 3 12 13 0 20 4 17 10 -3 6 -17 10 -31 10 -21 0 -24
-4 -24 -40z"/>
<path d="M4780 625 c0 -33 2 -35 33 -34 23 1 26 3 10 6 -27 5 -30 20 -5 26 16
4 16 5 0 6 -26 2 -22 19 5 24 16 3 13 5 -10 6 -31 1 -33 -1 -33 -34z"/>
<path d="M4858 653 c6 -2 12 -18 12 -34 0 -18 4 -28 10 -24 6 4 8 15 5 25 -4
12 1 22 12 29 15 9 12 10 -17 10 -19 0 -29 -3 -22 -6z"/>
<path d="M8820 616 c0 -10 8 -31 17 -49 17 -31 18 -31 21 -8 2 13 12 26 23 28
26 7 24 20 -5 27 -13 3 -31 9 -40 12 -11 4 -16 1 -16 -10z m35 -16 c3 -5 1
-10 -4 -10 -6 0 -11 5 -11 10 0 6 2 10 4 10 3 0 8 -4 11 -10z"/>
<path d="M8769 561 c-26 -21 -19 -56 13 -67 29 -9 62 29 48 56 -14 27 -37 31
-61 11z m41 -16 c13 -16 6 -35 -15 -35 -18 0 -28 17 -21 35 7 19 20 19 36 0z"/>
<path d="M6733 557 c-47 -18 -46 -21 3 -39 36 -13 44 -13 44 -2 0 11 34 14
173 16 l172 2 -168 3 c-137 3 -169 6 -173 18 -7 17 -8 17 -51 2z"/>
</g>
</svg>
